<?xml version="1.0" standalone="no"?>
<!DOCTYPE svg PUBLIC "-//W3C//DTD SVG 1.1//EN" "http://www.w3.org/Graphics/SVG/1.1/DTD/svg11.dtd" >
<svg xmlns="http://www.w3.org/2000/svg">
<metadata>Generated by IcoMoon</metadata>
<defs>
<font id="r-icomoon" horiz-adv-x="1024">
<font-face units-per-em="1024" ascent="960" descent="-64" />
<missing-glyph horiz-adv-x="1024" />
<glyph unicode="&#x20;" horiz-adv-x="512" d="" />
<glyph unicode="&#xe900;" glyph-name="menu-ap" d="M512 886.857c242.374 0 438.857-196.483 438.857-438.857s-196.483-438.857-438.857-438.857c-242.374 0-438.857 196.483-438.857 438.857s196.483 438.857 438.857 438.857zM512 850.286c-222.176 0-402.286-180.109-402.286-402.286s180.109-402.286 402.286-402.286c222.176 0 402.286 180.109 402.286 402.286s-180.109 402.286-402.286 402.286zM512 630.857c100.989 0 182.857-81.868 182.857-182.857s-81.868-182.857-182.857-182.857c-100.989 0-182.857 81.868-182.857 182.857s81.868 182.857 182.857 182.857zM512 594.286c-80.791 0-146.286-65.494-146.286-146.286s65.494-146.286 146.286-146.286c80.791 0 146.286 65.494 146.286 146.286s-65.494 146.286-146.286 146.286z" />
<glyph unicode="&#xe901;" glyph-name="menu-auth" d="M881.632 775.697c7.84-5.16 12.961-13.468 14.118-22.64l0.25-3.977v-384.216c0-158.109-147.36-300.886-375.456-363.715-2.784-0.765-5.664-1.148-8.544-1.148s-5.76 0.383-8.544 1.148c-223.792 61.644-369.867 200.247-375.299 354.783l-0.157 8.933v384.216c0 10.711 5.408 20.72 14.368 26.617 244.192 160.405 495.072 160.405 739.264 0zM174.878 753.148l-10.319-6.652 0.012-381.633c0-136.225 129.42-264.329 335.841-324.832l11.575-3.277 11.579 3.271c202.228 59.273 330.547 183.412 335.7 316.508l0.161 8.33-0.012 381.633-10.295 6.652c-223.822 141.707-450.421 141.707-674.243 0zM792.538 482.628c6.527-6.163 7.514-15.992 2.783-23.257l-2.042-2.592-201.445-213.333c-6.477-6.859-16.918-7.552-24.198-2.13l-2.568 2.32-109.205 118.98c-6.829 7.44-6.333 19.007 1.107 25.836 6.613 6.070 16.488 6.353 23.397 1.116l2.44-2.222 95.901-104.465 187.982 199.008c6.933 7.343 18.507 7.674 25.849 0.741zM490.667 764.952c69.009 0 124.952-55.943 124.952-124.952 0-41.773-20.499-78.758-51.985-101.446 35.237-12.976 66.543-35.332 90.56-65.002 6.354-7.85 5.141-19.364-2.708-25.718s-19.364-5.141-25.718 2.708c-32.801 40.523-81.965 64.505-135.101 64.505-95.94 0-173.714-77.775-173.714-173.714 0-10.149 0.868-20.179 2.581-30.018 1.732-9.949-4.93-19.419-14.879-21.151s-19.419 4.93-21.151 14.879c-2.073 11.908-3.123 24.037-3.123 36.29 0 90.472 57.135 167.6 137.291 197.271-31.474 22.666-51.957 59.639-51.957 101.396 0 69.009 55.943 124.952 124.952 124.952zM490.667 728.381c-48.811 0-88.381-39.57-88.381-88.381s39.57-88.381 88.381-88.381c48.811 0 88.381 39.57 88.381 88.381s-39.57 88.381-88.381 88.381z" />
<glyph unicode="&#xe902;" glyph-name="menu-sd-wan" d="M725.333 835.79c6.533 0 12.569-3.485 15.836-9.143v0l213.333-369.504c3.266-5.658 3.266-12.628 0-18.286v0l-213.333-369.504c-3.266-5.658-9.303-9.143-15.836-9.143v0h-426.667c-6.533 0-12.569 3.485-15.836 9.143v0l-213.333 369.504c-3.266 5.658-3.266 12.628 0 18.286v0l213.333 369.504c3.266 5.658 9.303 9.143 15.836 9.143v0zM714.789 799.232h-405.541l-202.789-351.232 202.789-351.195h405.541l202.789 351.195-202.789 351.232zM661.333 704c35.346 0 64-28.654 64-64s-28.654-64-64-64c-21.287 0-40.146 10.392-51.781 26.38l-140.294-43.671c0.050-1.341 0.075-2.689 0.075-4.042 0-18.303-4.61-35.529-12.732-50.581l210.356-153.222c10.454 7.433 23.238 11.803 37.042 11.803 35.346 0 64-28.654 64-64s-28.654-64-64-64c-35.346 0-64 28.654-64 64 0 8.257 1.564 16.148 4.411 23.395l-210.492 153.226c-14.588-13.103-32.807-22.243-52.963-25.726l0.027-132.221c26.421-7.877 45.684-32.36 45.684-61.341 0-35.346-28.654-64-64-64s-64 28.654-64 64c0 28.987 19.27 53.472 45.699 61.345l0.012 132.217c-50.196 8.673-88.378 52.43-88.378 105.105 0 58.91 47.756 106.667 106.667 106.667 44.778 0 83.112-27.592 98.927-66.701l135.814 42.256c-0.049 1.031-0.074 2.068-0.074 3.112 0 35.346 28.654 64 64 64zM362.667 283.429c-15.148 0-27.429-12.28-27.429-27.429s12.28-27.429 27.429-27.429c15.148 0 27.429 12.28 27.429 27.429s-12.28 27.429-27.429 27.429zM704 326.095c-15.148 0-27.429-12.28-27.429-27.429s12.28-27.429 27.429-27.429c15.148 0 27.429 12.28 27.429 27.429s-12.28 27.429-27.429 27.429zM362.667 624.762c-38.713 0-70.095-31.383-70.095-70.095s31.383-70.095 70.095-70.095c38.713 0 70.095 31.383 70.095 70.095s-31.383 70.095-70.095 70.095zM661.333 667.429c-15.148 0-27.429-12.28-27.429-27.429s12.28-27.429 27.429-27.429c15.148 0 27.429 12.28 27.429 27.429s-12.28 27.429-27.429 27.429z" />
<glyph unicode="&#xe903;" glyph-name="menu-speed" d="M512 886.857c242.374 0 438.857-196.483 438.857-438.857s-196.483-438.857-438.857-438.857c-242.374 0-438.857 196.483-438.857 438.857s196.483 438.857 438.857 438.857zM512 850.286c-222.176 0-402.286-180.109-402.286-402.286s180.109-402.286 402.286-402.286c222.176 0 402.286 180.109 402.286 402.286s-180.109 402.286-402.286 402.286zM685.686 567.623c7.857-4.342 11.262-13.615 8.491-21.83l-1.332-3.019-121.869-220.508c-0.724-1.309-1.584-2.495-2.554-3.549 21.307-16.636 35.007-42.648 35.007-71.86 0-50.495-40.934-91.429-91.429-91.429s-91.429 40.934-91.429 91.429c0 50.495 40.934 91.429 91.429 91.429 8.708 0 17.131-1.217 25.11-3.491l0.526 2.143 1.332 3.019 121.869 220.508c4.885 8.839 16.010 12.044 24.849 7.159zM512 301.714c-30.297 0-54.857-24.56-54.857-54.857s24.56-54.857 54.857-54.857c30.297 0 54.857 24.56 54.857 54.857s-24.56 54.857-54.857 54.857zM512.305 740.571c117.218 0 220.324-74.207 258.713-182.971 3.361-9.523-1.634-19.968-11.157-23.329s-19.968 1.634-23.329 11.157c-33.267 94.253-122.634 158.572-224.227 158.572-102.177 0-191.944-65.060-224.758-160.093-3.296-9.546-13.707-14.612-23.252-11.316s-14.612 13.707-11.316 23.252c37.867 109.666 141.433 184.728 259.327 184.728z" />
<glyph unicode="&#xe904;" glyph-name="menu-audit" d="M512 886.857l28.165-13.018 9.045-5.018 10.018-5.26 13.295-6.641 16.436-7.772 12.635-5.687 13.929-6.004 15.184-6.248 16.398-6.418 17.572-6.513 18.705-6.535c3.21-1.087 6.465-2.171 9.765-3.252 6.348-2.239 12.521-4.318 18.512-6.249l17.421-5.358 16.285-4.535c2.617-0.691 5.185-1.351 7.702-1.981l14.497-3.43 13.249-2.779 11.956-2.196 10.618-1.682 9.235-1.237 11.163-1.17 12.914-0.731 41.015-3.135v-432.588c0-71.666-65.936-145.851-142.079-205.895l-17.727-13.598c-2.976-2.222-5.961-4.421-8.952-6.596l-17.986-12.759-17.968-12.144-17.797-11.482-8.787-5.479-17.256-10.405c-2.834-1.671-5.646-3.309-8.431-4.915l-16.373-9.226-15.594-8.382c-2.526-1.324-5.013-2.611-7.457-3.861l-14.14-7.032-12.981-6.075-11.669-5.073-10.205-4.024c-9.422-3.485-16.421-5.33-20.31-5.33-4.243 0-11.522 1.845-21.163 5.33l-10.404 4.024c-1.857 0.759-3.773 1.562-5.746 2.408l-12.485 5.579c-2.185 1.013-4.42 2.066-6.702 3.16l-14.23 7.032-15.207 7.944c-5.215 2.795-10.568 5.734-16.033 8.81l-16.71 9.63-17.237 10.405-8.77 5.479-17.747 11.482c-14.874 9.851-29.907 20.39-44.71 31.5l-17.628 13.598c-72.782 57.735-135.908 128.544-140.656 197.616l-0.286 8.279v432.588l47.542 3.391 9.207 1.024 15.126 2.175 20.866 3.71 12.529 2.551 13.897 3.079 15.242 3.654 16.565 4.278 17.865 4.95 19.143 5.67 18.644 6.518c3.031 1.090 6.023 2.18 8.974 3.269l17.214 6.513 16.185 6.418 15.095 6.248 13.945 6.004 12.734 5.687 21.593 10.124 19.102 9.549 10.321 5.498 23.925 12.539zM513.061 846.153l-22.064-11.669-10.547-5.276-12.501-6.036c-29.607-14.056-62.769-28.084-98.772-41.173l-15.705-5.574c-2.737-0.948-5.561-1.913-8.51-2.909l-24.56-7.243-22.831-6.226c-7.319-1.912-14.346-3.663-21.074-5.263l-19.288-4.353c-9.193-1.958-17.705-3.595-25.52-4.941l-14.696-2.313-12.809-1.591c-1.976-0.208-3.872-0.388-5.687-0.542l-15.64-1.093v-398.529c0-53.656 53.457-122.038 142.453-189.118l10.034-7.447 14.912-10.627 7.622-5.241 15.454-10.283 15.571-9.948 7.768-4.822 22.942-13.729 14.749-8.433 14.084-7.759 13.224-6.999 12.168-6.155 10.917-5.226 9.47-4.212c8.682-3.677 14.9-5.707 17.775-5.707 1.277 0 3.414 0.514 6.297 1.492l6.729 2.56 8.517 3.709c1.557 0.709 3.181 1.462 4.866 2.258l10.821 5.268 18.574 9.616 13.649 7.425 14.427 8.133 15.002 8.753c2.537 1.506 5.090 3.033 7.654 4.581l15.486 9.518c2.592 1.622 5.188 3.261 7.782 4.914l15.514 10.084 15.281 10.351c5.032 3.485 9.992 7 14.845 10.53 92.374 67.192 149.515 135.965 153.479 190.513l0.221 6.002v398.785l-4.443 0.366c-29.499 0-78.766 7.516-142.764 28.975l-12.171 4.189c-8.085 2.648-16.069 5.37-23.95 8.16-37.13 13.143-70.544 27.248-99.767 41.399l-17.805 8.889-13.288 7.094-4.531 2.597-9.362 4.279zM585.143 338.286c10.099 0 18.286-8.187 18.286-18.286 0-8.977-6.469-16.443-14.999-17.991l-3.287-0.295h-292.571c-10.099 0-18.286 8.187-18.286 18.286 0 8.977 6.469 16.443 14.999 17.991l3.287 0.295h292.571zM731.429 448c10.099 0 18.286-8.187 18.286-18.286 0-8.977-6.469-16.443-14.999-17.991l-3.287-0.295h-438.857c-10.099 0-18.286 8.187-18.286 18.286 0 8.977 6.469 16.443 14.999 17.991l3.287 0.295h438.857zM731.429 557.714c10.099 0 18.286-8.187 18.286-18.286 0-8.977-6.469-16.443-14.999-17.991l-3.287-0.295h-438.857c-10.099 0-18.286 8.187-18.286 18.286 0 8.977 6.469 16.443 14.999 17.991l3.287 0.295h438.857zM731.429 667.429c10.099 0 18.286-8.187 18.286-18.286 0-8.977-6.469-16.443-14.999-17.991l-3.287-0.295h-438.857c-10.099 0-18.286 8.187-18.286 18.286 0 8.977 6.469 16.443 14.999 17.991l3.287 0.295h438.857z" />
<glyph unicode="&#xe905;" glyph-name="menu-more" d="M512 886.857c242.374 0 438.857-196.483 438.857-438.857s-196.483-438.857-438.857-438.857c-242.374 0-438.857 196.483-438.857 438.857s196.483 438.857 438.857 438.857zM512 850.286c-222.176 0-402.286-180.109-402.286-402.286s180.109-402.286 402.286-402.286c222.176 0 402.286 180.109 402.286 402.286s-180.109 402.286-402.286 402.286zM512 493.714c25.247 0 45.714-20.467 45.714-45.714s-20.467-45.714-45.714-45.714c-25.247 0-45.714 20.467-45.714 45.714s20.467 45.714 45.714 45.714zM722.286 493.714c25.247 0 45.714-20.467 45.714-45.714s-20.467-45.714-45.714-45.714c-25.247 0-45.714 20.467-45.714 45.714s20.467 45.714 45.714 45.714zM301.714 493.714c25.247 0 45.714-20.467 45.714-45.714s-20.467-45.714-45.714-45.714c-25.247 0-45.714 20.467-45.714 45.714s20.467 45.714 45.714 45.714z" />
<glyph unicode="&#xe906;" glyph-name="menu-tool" d="M588.644 874.667c8.624 0 16.075-6.025 17.88-14.457l20.866-97.359c8.739-3.204 17.308-6.761 25.689-10.655l83.558 54.119c7.239 4.686 16.769 3.677 22.866-2.42l108.39-108.39c6.098-6.098 7.106-15.627 2.421-22.866l-54.102-83.595c3.889-8.375 7.443-16.938 10.644-25.67l97.352-20.848c8.432-1.805 14.457-9.257 14.457-17.88v-153.287c0-8.624-6.025-16.075-14.457-17.88l-97.359-20.866c-3.199-8.727-6.751-17.283-10.638-25.653l54.102-83.595c4.686-7.239 3.677-16.769-2.42-22.866l-108.39-108.39c-6.098-6.098-15.627-7.106-22.866-2.421l-83.595 54.102c-8.358-3.881-16.902-7.429-25.616-10.624l-20.899-97.378c-1.808-8.43-9.258-14.451-17.879-14.451h-153.297c-8.621 0-16.071 6.022-17.879 14.451l-20.917 97.385c-8.695 3.189-17.221 6.728-25.561 10.6l-83.633-54.091c-7.239-4.682-16.765-3.672-22.861 2.424l-108.398 108.398c-6.096 6.096-7.106 15.622-2.424 22.861l54.092 83.633c-3.875 8.346-7.416 16.878-10.607 25.579l-97.378 20.899c-8.43 1.808-14.451 9.258-14.451 17.879v153.297c0 8.621 6.022 16.071 14.451 17.879l97.385 20.917c3.185 8.682 6.718 17.196 10.583 25.524l-54.075 83.67c-4.682 7.239-3.672 16.765 2.424 22.861l108.398 108.398c6.096 6.096 15.622 7.106 22.861 2.424l83.67-54.075c8.352 3.876 16.89 7.419 25.597 10.61l20.848 97.352c1.805 8.432 9.257 14.457 17.88 14.457h153.287zM573.842 838.107h-123.721l-21.959-102.643-18.949-6.945-11.495-4.487-11.292-4.959-18.301-8.494-88.208 57.054-87.515-87.515 57.018-88.244-8.494-18.301-4.945-11.26-4.476-11.462-6.943-18.928-102.669-22.044v-123.758l102.662-22.022 6.944-18.934 4.486-11.487 4.957-11.285 8.501-18.31-57.040-88.166 87.479-87.479 88.203 57.003 18.31-8.501 11.276-4.954 11.478-4.483 18.928-6.943 22.044-102.632h123.758l22.022 102.625 18.934 6.944 11.503 4.493 11.301 4.965 18.318 8.507 88.126-57.024 87.479 87.479-57.024 88.126 8.507 18.318 4.972 11.317 4.498 11.52 6.945 18.943 102.612 22.016v123.721l-102.606 21.959-6.945 18.949-4.501 11.528-4.975 11.324-8.507 18.318 57.024 88.162-87.479 87.479-88.084-57.083-18.327 8.514-11.333 4.98-11.536 4.505-18.943 6.945-22.016 102.649zM512 636.952c104.356 0 188.952-84.597 188.952-188.952s-84.597-188.952-188.952-188.952c-104.356 0-188.952 84.597-188.952 188.952s84.597 188.952 188.952 188.952zM512 600.381c-84.158 0-152.381-68.223-152.381-152.381s68.223-152.381 152.381-152.381c84.158 0 152.381 68.223 152.381 152.381s-68.223 152.381-152.381 152.381z" />
<glyph unicode="&#xe907;" glyph-name="menu-system" d="M419.2 764.919c10.617 0.811 19.678-7.585 19.678-18.233v0-362.136c0-5.323 4.33-9.653 9.653-9.653v0h362.136c10.648 0 19.044-9.062 18.233-19.678-15.108-197.789-180.921-352.152-380.368-352.152-210.36 0-381.483 171.123-381.483 381.483 0 199.447 154.363 365.261 352.152 380.368zM402.298 726.429l-9.199-1.408c-164.692-26.67-289.48-170.011-289.48-340.469 0-190.163 154.749-344.912 344.912-344.912 170.458 0 313.799 124.788 340.469 289.48v0l1.357 9.214-341.827-0.006c-23.926 0-43.617 18.196-45.985 41.499v0l-0.239 4.725-0.009 341.878zM542.423 874.615c208.675-14.819 377.523-182.123 395.135-390.33 0.739-2.475 1.108-5.091 1.108-7.822 0-14.392-10.693-26.299-24.554-28.184l-3.853-0.26h-369.854c-14.374 0-26.265 10.707-28.147 24.586l-0.259 3.858v368.343c0 7.879 3.267 16.156 9.062 21.532 5.767 5.376 13.692 8.903 21.362 8.277zM548.547 837.423v-352.805h352.219l-0.665 6.936c-19.965 178.756-162.122 322.309-339.635 344.557l-11.92 1.311z" />
<glyph unicode="&#xe908;" glyph-name="menu-system-active" d="M419.2 764.919c10.617 0.811 19.678-7.585 19.678-18.233v0-362.136c0-5.323 4.33-9.653 9.653-9.653v0h362.136c10.648 0 19.044-9.062 18.233-19.678-15.108-197.789-180.921-352.152-380.368-352.152-210.36 0-381.483 171.123-381.483 381.483 0 199.447 154.363 365.261 352.152 380.368zM542.423 874.615c208.675-14.819 377.523-182.123 395.135-390.33 0.739-2.475 1.108-5.091 1.108-7.822 0-14.392-10.693-26.299-24.554-28.184l-3.853-0.26h-369.854c-14.374 0-26.265 10.707-28.147 24.586l-0.259 3.858v368.343c0 7.879 3.267 16.156 9.062 21.532 5.767 5.376 13.692 8.903 21.362 8.277z" />
<glyph unicode="&#xe909;" glyph-name="menu-network" d="M621.714 868.571c10.099 0 18.286-8.187 18.286-18.286v-219.429c0-10.099-8.187-18.286-18.286-18.286h-91.429v-109.714h265.143c17.145 0 31.355-12.825 33.298-29.439l0.226-3.897-0.024-186.093h85.358c10.099 0 18.286-8.187 18.286-18.286v-219.429c0-10.099-8.187-18.286-18.286-18.286h-219.429c-10.099 0-18.286 8.187-18.286 18.286v219.429c0 10.099 8.187 18.286 18.286 18.286h97.499v182.857h-262.071v-182.857h91.429c10.099 0 18.286-8.187 18.286-18.286v-219.429c0-10.099-8.187-18.286-18.286-18.286h-219.429c-10.099 0-18.286 8.187-18.286 18.286v219.429c0 10.099 8.187 18.286 18.286 18.286h91.429v182.857h-262.107v-182.857h97.536c10.099 0 18.286-8.187 18.286-18.286v-219.429c0-10.099-8.187-18.286-18.286-18.286h-219.429c-10.099 0-18.286 8.187-18.286 18.286v219.429c0 10.099 8.187 18.286 18.286 18.286h85.321l0.012 186.093c0 17.143 12.985 31.193 29.624 33.112l3.9 0.224h265.143v109.714h-91.429c-10.099 0-18.286 8.187-18.286 18.286v219.429c0 10.099 8.187 18.286 18.286 18.286h219.429zM603.429 246.857h-182.857v-182.857h182.857v182.857zM310.857 246.857h-182.857v-182.857h182.857v182.857zM896 246.857h-182.857v-182.857h182.857v182.857zM603.429 832h-182.857v-182.857h182.857v182.857z" />
<glyph unicode="&#xe90a;" glyph-name="menu-network-active" d="M621.714 868.571c10.099 0 18.286-8.187 18.286-18.286v-219.429c0-10.099-8.187-18.286-18.286-18.286h-91.429v-109.714h265.143c17.145 0 31.355-12.825 33.298-29.439l0.226-3.897-0.024-186.093h85.358c10.099 0 18.286-8.187 18.286-18.286v-219.429c0-10.099-8.187-18.286-18.286-18.286h-219.429c-10.099 0-18.286 8.187-18.286 18.286v219.429c0 10.099 8.187 18.286 18.286 18.286h97.499v182.857h-262.071v-182.857h91.429c10.099 0 18.286-8.187 18.286-18.286v-219.429c0-10.099-8.187-18.286-18.286-18.286h-219.429c-10.099 0-18.286 8.187-18.286 18.286v219.429c0 10.099 8.187 18.286 18.286 18.286h91.429v182.857h-262.107v-182.857h97.536c10.099 0 18.286-8.187 18.286-18.286v-219.429c0-10.099-8.187-18.286-18.286-18.286h-219.429c-10.099 0-18.286 8.187-18.286 18.286v219.429c0 10.099 8.187 18.286 18.286 18.286h85.321l0.012 186.093c0 17.143 12.985 31.193 29.624 33.112l3.9 0.224h265.143v109.714h-91.429c-10.099 0-18.286 8.187-18.286 18.286v219.429c0 10.099 8.187 18.286 18.286 18.286h219.429z" />
<glyph unicode="&#xe90b;" glyph-name="menu-ap-active" d="M512 886.857c242.374 0 438.857-196.483 438.857-438.857s-196.483-438.857-438.857-438.857c-242.374 0-438.857 196.483-438.857 438.857s196.483 438.857 438.857 438.857zM512 630.857c-100.989 0-182.857-81.868-182.857-182.857s81.868-182.857 182.857-182.857c100.989 0 182.857 81.868 182.857 182.857s-81.868 182.857-182.857 182.857zM512 594.286c80.791 0 146.286-65.494 146.286-146.286s-65.494-146.286-146.286-146.286c-80.791 0-146.286 65.494-146.286 146.286s65.494 146.286 146.286 146.286z" />
<glyph unicode="&#xe90c;" glyph-name="menu-auth-active" d="M881.632 775.697c7.84-5.16 12.961-13.468 14.118-22.64l0.25-3.977v-384.216c0-158.109-147.36-300.886-375.456-363.715-2.784-0.765-5.664-1.148-8.544-1.148s-5.76 0.383-8.544 1.148c-223.792 61.644-369.867 200.247-375.299 354.783l-0.157 8.933v384.216c0 10.711 5.408 20.72 14.368 26.617 244.192 160.405 495.072 160.405 739.264 0zM792.538 482.628c-7.343 6.933-18.916 6.602-25.849-0.741v0l-187.982-199.008-95.901 104.465-2.44 2.222c-6.909 5.237-16.783 4.955-23.397-1.116-7.44-6.829-7.936-18.396-1.107-25.836v0l109.205-118.98 2.568-2.32c7.281-5.422 17.722-4.729 24.198 2.13v0l201.445 213.333 2.042 2.592c4.731 7.265 3.744 17.094-2.783 23.257zM490.667 764.952c-69.009 0-124.952-55.943-124.952-124.952 0-41.757 20.483-78.73 51.957-101.396-80.156-29.671-137.291-106.799-137.291-197.271 0-12.253 1.050-24.381 3.123-36.29 1.732-9.949 11.201-16.611 21.151-14.879s16.611 11.201 14.879 21.151c-1.713 9.84-2.581 19.87-2.581 30.018 0 95.94 77.775 173.714 173.714 173.714 53.136 0 102.3-23.983 135.101-64.505 6.354-7.85 17.868-9.062 25.718-2.708s9.062 17.868 2.708 25.718c-24.017 29.67-55.323 52.027-90.56 65.002 31.487 22.687 51.985 59.673 51.985 101.446 0 69.009-55.943 124.952-124.952 124.952zM490.667 728.381c48.811 0 88.381-39.57 88.381-88.381s-39.57-88.381-88.381-88.381c-48.811 0-88.381 39.57-88.381 88.381s39.57 88.381 88.381 88.381z" />
<glyph unicode="&#xe90d;" glyph-name="menu-sd-wan-active" d="M725.333 835.79c6.533 0 12.569-3.485 15.836-9.143v0l213.333-369.504c3.266-5.658 3.266-12.628 0-18.286v0l-213.333-369.504c-3.266-5.658-9.303-9.143-15.836-9.143v0h-426.667c-6.533 0-12.569 3.485-15.836 9.143v0l-213.333 369.504c-3.266 5.658-3.266 12.628 0 18.286v0l213.333 369.504c3.266 5.658 9.303 9.143 15.836 9.143v0zM661.333 704c-35.346 0-64-28.654-64-64v0l0.074-3.097-135.824-42.245c-15.822 39.095-54.148 66.674-98.916 66.674-58.91 0-106.667-47.756-106.667-106.667 0-52.675 38.181-96.431 88.378-105.105v0l-0.027-132.221c-26.421-7.877-45.684-32.36-45.684-61.341 0-35.346 28.654-64 64-64s64 28.654 64 64c0 28.987-19.27 53.472-45.699 61.345v0l-0.012 132.217c20.173 3.486 38.406 12.638 53 25.758v0l210.455-153.259c-2.847-7.246-4.411-15.138-4.411-23.395 0-35.346 28.654-64 64-64s64 28.654 64 64c0 35.346-28.654 64-64 64-13.807 0-26.593-4.372-37.049-11.808v0l-210.363 153.201c8.13 15.058 12.746 32.293 12.746 50.606v0l-0.074 4.019 140.319 43.659c11.637-15.968 30.485-26.344 51.755-26.344 35.346 0 64 28.654 64 64s-28.654 64-64 64zM362.667 283.429c15.148 0 27.429-12.28 27.429-27.429s-12.28-27.429-27.429-27.429c-15.148 0-27.429 12.28-27.429 27.429s12.28 27.429 27.429 27.429zM704 326.095c15.148 0 27.429-12.28 27.429-27.429s-12.28-27.429-27.429-27.429c-15.148 0-27.429 12.28-27.429 27.429s12.28 27.429 27.429 27.429zM362.667 624.762c38.713 0 70.095-31.383 70.095-70.095s-31.383-70.095-70.095-70.095c-38.713 0-70.095 31.383-70.095 70.095s31.383 70.095 70.095 70.095zM661.333 667.429c15.148 0 27.429-12.28 27.429-27.429s-12.28-27.429-27.429-27.429c-15.148 0-27.429 12.28-27.429 27.429s12.28 27.429 27.429 27.429z" />
<glyph unicode="&#xe90e;" glyph-name="menu-speed-active" d="M512 886.857c242.374 0 438.857-196.483 438.857-438.857s-196.483-438.857-438.857-438.857c-242.374 0-438.857 196.483-438.857 438.857s196.483 438.857 438.857 438.857zM685.686 567.623c-8.839 4.885-19.964 1.68-24.849-7.159v0l-121.869-220.508-1.332-3.019-0.526-2.143c-7.978 2.274-16.402 3.491-25.11 3.491-50.495 0-91.429-40.934-91.429-91.429s40.934-91.429 91.429-91.429c50.495 0 91.429 40.934 91.429 91.429 0 29.212-13.7 55.224-35.007 71.86 0.97 1.054 1.831 2.24 2.554 3.549v0l121.869 220.508 1.332 3.019c2.771 8.215-0.634 17.488-8.491 21.83zM512 301.714c30.297 0 54.857-24.56 54.857-54.857s-24.56-54.857-54.857-54.857c-30.297 0-54.857 24.56-54.857 54.857s24.56 54.857 54.857 54.857zM512.305 740.571c-117.893 0-221.46-75.062-259.327-184.728-3.296-9.546 1.77-19.956 11.316-23.252s19.956 1.77 23.252 11.316c32.814 95.033 122.581 160.093 224.758 160.093 101.593 0 190.96-64.319 224.227-158.572 3.361-9.523 13.806-14.518 23.329-11.157s14.518 13.806 11.157 23.329c-38.389 108.764-141.495 182.971-258.713 182.971z" />
<glyph unicode="&#xe90f;" glyph-name="menu-audit-active" d="M512 886.857l27.343-12.539c0 0 58.104-34.482 153.805-65.829 88.865-31.347 143.551-31.347 143.551-31.347v0l41.015-3.135v-432.588c0-159.869-328.117-332.278-365.714-332.278-41.015 0-365.714 172.408-365.714 332.278v0 432.588l44.433 3.135c0 0 51.268 3.135 143.551 31.347 92.283 31.347 153.805 65.829 153.805 65.829v0l23.925 12.539zM585.143 338.286l-295.858-0.295c-8.53-1.548-14.999-9.014-14.999-17.991 0-10.099 8.187-18.286 18.286-18.286v0l295.858 0.295c8.53 1.548 14.999 9.014 14.999 17.991 0 10.099-8.187 18.286-18.286 18.286v0zM731.429 448l-442.144-0.295c-8.53-1.548-14.999-9.014-14.999-17.991 0-10.099 8.187-18.286 18.286-18.286v0l442.144 0.295c8.53 1.548 14.999 9.014 14.999 17.991 0 10.099-8.187 18.286-18.286 18.286v0zM731.429 557.714l-442.144-0.295c-8.53-1.548-14.999-9.014-14.999-17.991 0-10.099 8.187-18.286 18.286-18.286v0l442.144 0.295c8.53 1.548 14.999 9.014 14.999 17.991 0 10.099-8.187 18.286-18.286 18.286v0zM731.429 667.429l-442.144-0.295c-8.53-1.548-14.999-9.014-14.999-17.991 0-10.099 8.187-18.286 18.286-18.286v0l442.144 0.295c8.53 1.548 14.999 9.014 14.999 17.991 0 10.099-8.187 18.286-18.286 18.286v0z" />
<glyph unicode="&#xe910;" glyph-name="menu-more-active" d="M512 886.857c242.374 0 438.857-196.483 438.857-438.857s-196.483-438.857-438.857-438.857c-242.374 0-438.857 196.483-438.857 438.857s196.483 438.857 438.857 438.857zM512 493.714c-25.247 0-45.714-20.467-45.714-45.714s20.467-45.714 45.714-45.714c25.247 0 45.714 20.467 45.714 45.714s-20.467 45.714-45.714 45.714zM722.286 493.714c-25.247 0-45.714-20.467-45.714-45.714s20.467-45.714 45.714-45.714c25.247 0 45.714 20.467 45.714 45.714s-20.467 45.714-45.714 45.714zM301.714 493.714c-25.247 0-45.714-20.467-45.714-45.714s20.467-45.714 45.714-45.714c25.247 0 45.714 20.467 45.714 45.714s-20.467 45.714-45.714 45.714z" />
<glyph unicode="&#xe911;" glyph-name="menu-tool-active" d="M588.644 874.667c8.624 0 16.075-6.025 17.88-14.457l20.866-97.359c8.739-3.204 17.308-6.761 25.689-10.655l83.558 54.119c7.239 4.686 16.769 3.677 22.866-2.42l108.39-108.39c6.098-6.098 7.106-15.627 2.421-22.866l-54.102-83.595c3.889-8.375 7.443-16.938 10.644-25.67l97.352-20.848c8.432-1.805 14.457-9.257 14.457-17.88v-153.287c0-8.624-6.025-16.075-14.457-17.88l-97.359-20.866c-3.199-8.727-6.751-17.283-10.638-25.653l54.102-83.595c4.686-7.239 3.677-16.769-2.42-22.866l-108.39-108.39c-6.098-6.098-15.627-7.106-22.866-2.421l-83.595 54.102c-8.358-3.881-16.902-7.429-25.616-10.624l-20.899-97.378c-1.808-8.43-9.258-14.451-17.879-14.451h-153.297c-8.621 0-16.071 6.022-17.879 14.451l-20.917 97.385c-8.695 3.189-17.221 6.728-25.561 10.6l-83.633-54.091c-7.239-4.682-16.765-3.672-22.861 2.424l-108.398 108.398c-6.096 6.096-7.106 15.622-2.424 22.861l54.092 83.633c-3.875 8.346-7.416 16.878-10.607 25.579l-97.378 20.899c-8.43 1.808-14.451 9.258-14.451 17.879v153.297c0 8.621 6.022 16.071 14.451 17.879l97.385 20.917c3.185 8.682 6.718 17.196 10.583 25.524l-54.075 83.67c-4.682 7.239-3.672 16.765 2.424 22.861l108.398 108.398c6.096 6.096 15.622 7.106 22.861 2.424l83.67-54.075c8.352 3.876 16.89 7.419 25.597 10.61l20.848 97.352c1.805 8.432 9.257 14.457 17.88 14.457h153.287zM512 636.952c-104.356 0-188.952-84.597-188.952-188.952s84.597-188.952 188.952-188.952c104.356 0 188.952 84.597 188.952 188.952s-84.597 188.952-188.952 188.952z" />
<glyph unicode="&#xe912;" glyph-name="port" horiz-adv-x="1056" d="M1056 960v-1024h-1024v1024h1024zM1024 928h-960v-960h960v960zM672 800v-64h128v-128h160v-544h-832v544h160v128h128v64h256zM640 768h-192v-64h-128v-128h-160v-480h768v480h-160v128h-128v64z" />
<glyph unicode="&#xe913;" glyph-name="port2" horiz-adv-x="1056" d="M1056 736v-576h-1024v576h1024zM1024 704h-960v-512h960v512zM960 320v-32h-832v32h832z" />
<glyph unicode="&#xe914;" glyph-name="close" d="M207.779 798.374l4.432-3.703 297.373-297.379 297.373 297.379c12.497 12.497 32.758 12.497 45.255 0 11.108-11.108 12.342-28.351 3.703-40.823l-3.703-4.432-297.379-297.373 297.379-297.373c12.497-12.497 12.497-32.758 0-45.255-11.108-11.108-28.351-12.342-40.823-3.703l-4.432 3.703-297.373 297.379-297.373-297.379c-12.497-12.497-32.758-12.497-45.255 0-11.108 11.108-12.342 28.351-3.703 40.823l3.703 4.432 297.379 297.373-297.379 297.373c-12.497 12.497-12.497 32.758 0 45.255 11.108 11.108 28.351 12.342 40.823 3.703z" />
<glyph unicode="&#xe915;" glyph-name="add" d="M512 896c17.673 0 32-14.327 32-32v-384h384c17.673 0 32-14.327 32-32s-14.327-32-32-32h-384v-384c0-17.673-14.327-32-32-32s-32 14.327-32 32v384h-384c-17.673 0-32 14.327-32 32s14.327 32 32 32h384v384c0 17.673 14.327 32 32 32z" />
<glyph unicode="&#xe916;" glyph-name="help" horiz-adv-x="1075" d="M563.2 960c282.77 0 512-229.23 512-512s-229.23-512-512-512c-282.77 0-512 229.23-512 512s229.23 512 512 512zM563.2 908.8c-254.493 0-460.8-206.307-460.8-460.8s206.307-460.8 460.8-460.8c254.493 0 460.8 206.307 460.8 460.8s-206.307 460.8-460.8 460.8zM561.562 267.469c12.186 0 22.938-3.584 31.539-12.186 7.885-7.885 12.186-17.92 12.186-30.106 0-12.902-4.301-22.938-12.902-30.822s-18.637-12.186-30.822-12.186c-12.186 0-22.221 4.301-30.822 12.186-8.602 8.602-12.186 18.637-12.186 30.822s3.584 22.221 12.186 30.106c8.602 8.602 18.637 12.186 30.822 12.186zM572.314 704c45.875 0 82.432-12.186 110.387-37.99 26.522-24.371 40.141-58.061 40.141-101.069 0-32.256-9.318-60.211-27.238-83.866-7.168-8.602-26.522-27.238-58.061-55.194-15.77-13.619-26.522-26.522-33.69-39.424-9.318-15.77-13.619-32.973-13.619-52.326v0-16.486h-57.344v16.486c0 23.654 4.301 44.442 12.902 62.362 10.035 21.504 33.69 48.742 72.397 83.149 11.469 11.469 20.070 20.070 24.371 25.805 14.336 17.92 21.504 36.557 21.504 56.627 0 28.672-8.602 50.893-24.371 66.662-16.486 17.203-40.141 25.088-70.246 25.088-35.84 0-62.362-11.469-79.565-35.123-15.77-20.070-23.654-47.309-23.654-82.432v0h-56.627c0 50.176 13.619 90.317 42.291 120.422 28.672 31.539 68.813 47.309 120.422 47.309z" />
<glyph unicode="&#xe917;" glyph-name="guide" horiz-adv-x="1088" d="M768 512c141.385 0 256-114.615 256-256s-114.615-256-256-256c-141.385 0-256 114.615-256 256s114.615 256 256 256zM805.79 864c46.978 0 85.409-36.214 89.767-82.314l0.412-8.753 0.031-231.342c0-17.673-14.323-32.002-31.996-32.004-15.709-0.002-28.776 11.316-31.488 26.244l-0.516 5.752-0.031 231.346c0 13.386-9.348 24.365-21.502 26.639l-4.677 0.433h-523.611c-12.754 0-23.519-9.491-25.754-22.177l-0.425-4.895v-649.79c0-13.386 9.348-24.365 21.51-26.639l4.68-0.433 193.755-0.066c17.673-0.006 31.995-14.338 31.989-32.011-0.005-15.709-11.33-28.771-26.259-31.475l-5.752-0.514-193.744 0.066c-46.978 0-85.409 36.214-89.767 82.318l-0.412 8.754v649.79c0 47.237 35.667 86.23 81.477 90.654l8.702 0.418h523.611zM768 448c-106.039 0-192-85.961-192-192s85.961-192 192-192c106.039 0 192 85.961 192 192s-85.961 192-192 192zM903.764 391.765l-90.51-181.019-181.019-90.51 90.51 181.019 181.019 90.51zM416 448c17.673 0 32-14.327 32-32s-14.327-32-32-32h-64c-17.673 0-32 14.327-32 32s14.327 32 32 32h64zM544 576c17.673 0 32-14.327 32-32s-14.327-32-32-32h-192c-17.673 0-32 14.327-32 32s14.327 32 32 32h192zM736 704c17.673 0 32-14.327 32-32s-14.327-32-32-32h-384c-17.673 0-32 14.327-32 32s14.327 32 32 32h384z" />
<glyph unicode="&#xe918;" glyph-name="minus" d="M96 480h832c17.673 0 32-14.327 32-32s-14.327-32-32-32h-832c-17.673 0-32 14.327-32 32s14.327 32 32 32z" />
<glyph unicode="&#xe919;" glyph-name="ap" horiz-adv-x="1045" d="M533.333 874.667c235.641 0 426.667-191.025 426.667-426.667s-191.025-426.667-426.667-426.667c-235.641 0-426.667 191.025-426.667 426.667s191.025 426.667 426.667 426.667zM533.333 853.333c-223.859 0-405.333-181.474-405.333-405.333s181.474-405.333 405.333-405.333c223.859 0 405.333 181.474 405.333 405.333s-181.474 405.333-405.333 405.333zM533.333 618.667c94.257 0 170.667-76.41 170.667-170.667s-76.41-170.667-170.667-170.667c-94.257 0-170.667 76.41-170.667 170.667s76.41 170.667 170.667 170.667zM533.333 597.333c-82.475 0-149.333-66.859-149.333-149.333s66.859-149.333 149.333-149.333c82.475 0 149.333 66.859 149.333 149.333s-66.859 149.333-149.333 149.333z" />
<glyph unicode="&#xe91a;" glyph-name="24g" horiz-adv-x="1045" d="M783.36 312.491c30.037 0 53.931-7.509 72.021-22.869 15.439-13.233 25.642-31.702 30.611-54.868l1.133-5.889h-21.163c-3.755 19.797-12.288 35.499-25.941 46.763-14.336 11.947-33.451 17.749-56.661 17.749-28.672 0-51.2-10.24-67.925-30.72-16.384-19.797-24.576-45.739-24.576-78.165 0-31.744 8.192-57.003 24.576-75.776 17.408-20.48 42.325-30.72 75.093-30.72 14.336 0 27.989 2.048 41.643 6.144 10.809 3.413 20.433 7.301 28.476 12.057l4.633 2.961v69.291h-83.285v18.432h104.107v-97.621c-11.264-8.875-25.259-16.384-41.984-21.845-17.749-5.461-36.181-8.192-55.296-8.192-38.229 0-68.267 12.629-89.429 37.205-19.797 22.869-29.355 52.224-29.355 88.064 0 36.181 9.557 65.877 29.013 89.429 20.821 25.941 48.811 38.571 84.309 38.571zM406.528 98.133c4.779 0 8.875-1.707 12.288-5.12s5.12-7.509 5.12-12.288c0-4.779-1.707-9.216-5.12-12.629-3.413-3.072-7.509-4.779-12.288-4.779-5.12 0-9.216 1.707-12.288 4.779-3.413 3.413-5.12 7.851-5.12 12.629s1.707 8.875 5.12 12.288c3.072 3.413 7.168 5.12 12.288 5.12zM263.168 312.491c21.845 0 39.936-6.144 54.272-19.115 14.336-12.629 21.504-29.355 21.504-50.517s-8.192-40.277-24.235-57.344c-7.851-8.192-24.576-21.163-50.517-38.912-32.882-22.244-51.758-42.356-56.917-60.337l-0.768-3.151h132.779v-19.115h-158.379c0 20.48 7.851 39.936 24.235 58.027 9.899 11.264 26.965 25.259 51.2 41.984 21.163 15.019 34.816 25.941 41.301 32.427 13.312 14.336 20.139 30.037 20.139 46.763 0 16.043-5.12 28.672-15.019 37.547s-23.211 13.312-39.936 13.312c-17.749 0-31.744-5.803-41.984-17.749-10.012-10.951-15.436-26.491-16.27-46.358l-0.114-5.525h-21.163c0 27.307 7.509 48.811 22.528 64.512 14.336 15.701 33.451 23.552 57.344 23.552zM605.184 307.712v-169.301h41.301v-17.408h-41.301v-57.003h-20.139v57.003h-125.611v20.139l125.611 166.571h20.139zM585.045 279.381h-1.024l-105.813-140.971h106.837v140.971zM533.333 522.667c67.849 0 131.308-27.694 177.291-75.756 4.073-4.257 3.923-11.009-0.333-15.081s-11.009-3.923-15.081 0.333c-41.999 43.898-99.909 69.17-161.876 69.17s-119.877-25.273-161.876-69.17c-4.073-4.257-10.825-4.406-15.081-0.333s-4.406 10.825-0.333 15.081c45.983 48.062 109.441 75.756 177.291 75.756zM533.333 693.333c115.049 0 222.637-46.95 300.613-128.444 4.073-4.256 3.924-11.009-0.333-15.081s-11.009-3.924-15.081 0.333c-73.992 77.33-176.031 121.859-285.199 121.859-109.178 0-211.226-44.537-285.219-121.88-4.072-4.257-10.824-4.406-15.081-0.334s-4.406 10.824-0.334 15.081c77.977 81.507 185.574 128.466 300.634 128.466zM533.333 864c162.256 0 313.979-66.211 423.948-181.146 4.073-4.257 3.924-11.009-0.333-15.081s-11.009-3.924-15.081 0.333c-105.985 110.771-252.159 174.561-408.534 174.561s-302.548-63.79-408.534-174.561c-4.073-4.257-10.825-4.406-15.081-0.333s-4.406 10.825-0.333 15.081c109.969 114.935 261.692 181.146 423.948 181.146z" />
<glyph unicode="&#xe91b;" glyph-name="5g" horiz-adv-x="1045" d="M480.256 307.712v-19.115h-120.491l-8.533-89.771h1.024c7.168 8.533 16.043 15.019 26.965 19.456 9.899 4.437 20.48 6.485 31.744 6.485 23.211 0 41.984-7.168 56.32-21.504 14.677-15.019 22.187-35.499 22.187-61.781 0-23.893-8.533-44.032-24.917-59.733-16.043-15.019-35.84-22.528-59.733-22.528-21.163 0-38.912 5.803-53.589 17.408-16.725 12.629-25.941 30.037-27.648 51.883v0h20.821c1.707-16.384 8.533-29.355 20.48-38.571 10.581-8.192 23.893-12.629 39.936-12.629 18.432 0 33.792 6.144 45.739 18.091 11.947 12.288 18.091 27.648 18.091 46.080 0 20.821-5.803 37.205-17.067 48.811-10.923 11.264-25.941 16.725-44.715 16.725-12.288 0-23.552-2.731-33.451-8.192-10.24-5.803-18.091-13.995-23.552-24.235v0h-19.797l12.288 133.12h137.899zM636.928 312.491c30.037 0 53.931-7.509 72.021-22.869 16.725-14.336 27.307-34.816 31.744-60.757v0h-21.163c-3.755 19.797-12.288 35.499-25.941 46.763-14.336 11.947-33.451 17.749-56.661 17.749-28.672 0-51.2-10.24-67.925-30.72-16.384-19.797-24.576-45.739-24.576-78.165 0-31.744 8.192-57.003 24.576-75.776 17.408-20.48 42.325-30.72 75.093-30.72 14.336 0 27.989 2.048 41.643 6.144 12.971 4.096 24.235 8.875 33.109 15.019v0 69.291h-83.285v18.432h104.107v-97.621c-11.264-8.875-25.259-16.384-41.984-21.845-17.749-5.461-36.181-8.192-55.296-8.192-38.229 0-68.267 12.629-89.429 37.205-19.797 22.869-29.355 52.224-29.355 88.064 0 36.181 9.557 65.877 29.013 89.429 20.821 25.941 48.811 38.571 84.309 38.571zM533.333 522.667c67.849 0 131.308-27.694 177.291-75.756 4.073-4.257 3.923-11.009-0.333-15.081s-11.009-3.923-15.081 0.333c-41.999 43.898-99.909 69.17-161.876 69.17s-119.877-25.273-161.876-69.17c-4.073-4.257-10.825-4.406-15.081-0.333s-4.406 10.825-0.333 15.081c45.983 48.062 109.441 75.756 177.291 75.756zM533.333 693.333c115.049 0 222.637-46.95 300.613-128.444 4.073-4.256 3.924-11.009-0.333-15.081s-11.009-3.924-15.081 0.333c-73.992 77.33-176.031 121.859-285.199 121.859-109.178 0-211.226-44.537-285.219-121.88-4.072-4.257-10.824-4.406-15.081-0.334s-4.406 10.824-0.334 15.081c77.977 81.507 185.574 128.466 300.634 128.466zM533.333 864c162.256 0 313.979-66.211 423.948-181.146 4.073-4.257 3.924-11.009-0.333-15.081s-11.009-3.924-15.081 0.333c-105.985 110.771-252.159 174.561-408.534 174.561s-302.548-63.79-408.534-174.561c-4.073-4.257-10.825-4.406-15.081-0.333s-4.406 10.825-0.333 15.081c109.969 114.935 261.692 181.146 423.948 181.146z" />
<glyph unicode="&#xe91c;" glyph-name="iconAP" horiz-adv-x="1045" d="M533.333 874.667c235.641 0 426.667-191.025 426.667-426.667 0-45.999-7.285-91.012-21.4-133.791 33.071-34.49 53.4-81.309 53.4-132.876 0-106.039-85.961-192-192-192-51.567 0-98.386 20.329-132.879 53.41l-1.927-0.642c-42.205-13.702-86.556-20.769-131.86-20.769-235.641 0-426.667 191.025-426.667 426.667s191.025 426.667 426.667 426.667zM800 352c-94.257 0-170.667-76.41-170.667-170.667s76.41-170.667 170.667-170.667c94.257 0 170.667 76.41 170.667 170.667s-76.41 170.667-170.667 170.667zM533.333 853.333c-223.859 0-405.333-181.474-405.333-405.333s181.474-405.333 405.333-405.333c40.393 0 79.968 5.907 117.806 17.382-26.974 33.094-43.139 75.301-43.139 121.285 0 106.039 85.961 192 192 192 45.993 0 88.209-16.172 121.272-43.14 11.484 37.819 17.394 77.402 17.394 117.806 0 223.859-181.474 405.333-405.333 405.333zM799.317 106.112c5.077 0 9.557-1.493 13.141-5.077 3.285-3.285 5.077-7.467 5.077-12.544 0-5.376-1.792-9.557-5.376-12.843s-7.765-5.077-12.843-5.077c-5.077 0-9.259 1.792-12.843 5.077-3.584 3.584-5.077 7.765-5.077 12.843s1.493 9.259 5.077 12.544c3.584 3.584 7.765 5.077 12.843 5.077zM803.797 288c19.115 0 34.347-5.077 45.995-15.829 11.051-10.155 16.725-24.192 16.725-42.112 0-13.44-3.883-25.088-11.349-34.944-2.987-3.584-11.051-11.349-24.192-22.997-6.571-5.675-11.051-11.051-14.037-16.427-3.236-5.476-5.019-11.366-5.524-17.844l-0.151-3.959v-6.869h-23.893v6.869c0 9.856 1.792 18.517 5.376 25.984 4.181 8.96 14.037 20.309 30.165 34.645 4.779 4.779 8.363 8.363 10.155 10.752 5.973 7.467 8.96 15.232 8.96 23.595 0 11.947-3.584 21.205-10.155 27.776-6.869 7.168-16.725 10.453-29.269 10.453-14.933 0-25.984-4.779-33.152-14.635-5.841-7.433-9.085-17.227-9.734-29.59l-0.122-4.757h-23.595c0 20.907 5.675 37.632 17.621 50.176 11.947 13.141 28.672 19.712 50.176 19.712zM533.333 618.667c94.257 0 170.667-76.41 170.667-170.667s-76.41-170.667-170.667-170.667c-94.257 0-170.667 76.41-170.667 170.667s76.41 170.667 170.667 170.667zM533.333 597.333c-82.475 0-149.333-66.859-149.333-149.333s66.859-149.333 149.333-149.333c82.475 0 149.333 66.859 149.333 149.333s-66.859 149.333-149.333 149.333z" />
<glyph unicode="&#xe91d;" glyph-name="disable" d="M512 832c212.077 0 384-171.923 384-384s-171.923-384-384-384c-212.077 0-384 171.923-384 384s171.923 384 384 384zM192 448c0-176.731 143.269-320 320-320 82.544 0 157.789 31.254 214.546 82.573l-467.188 433.849c-42.214-54.219-67.358-122.384-67.358-196.422zM512 768c-79.68 0-152.558-29.122-208.571-77.303l466.076-432.709c39.275 53.138 62.495 118.863 62.495 190.012 0 176.731-143.269 320-320 320z" />
<glyph unicode="&#xe91e;" glyph-name="remove-group" d="M784 832c32.821 0 59.872-24.707 63.569-56.536l0.431-7.464 0.078-248.211c58.481-46.917 95.922-118.981 95.922-199.789 0-141.385-114.615-256-256-256-94.727 0-177.437 51.45-221.711 127.929l-322.289 0.071c-32.821 0-59.872 24.707-63.569 56.536l-0.431 7.464v512c0 32.821 24.707 59.872 56.536 63.569l7.464 0.431h640zM688 512c-106.039 0-192-85.961-192-192s85.961-192 192-192c106.039 0 192 85.961 192 192s-85.961 192-192 192zM619.796 432.73l4.432-3.703 67.869-67.875 66.575 66.555c12.497 12.497 32.758 12.497 45.255 0 11.108-11.108 12.342-28.351 3.703-40.823l-3.703-4.432-66.582-66.548 63.57-63.564c12.497-12.497 12.497-32.758 0-45.255-11.108-11.108-28.351-12.342-40.823-3.703l-4.432 3.703-63.564 63.57-64.857-64.891c-12.497-12.497-32.758-12.497-45.255 0-11.108 11.108-12.342 28.351-3.703 40.823l3.703 4.432 64.864 64.884-67.875 67.869c-12.497 12.497-12.497 32.758 0 45.255 11.108 11.108 28.351 12.342 40.823 3.703zM784 768h-640v-512l296.078-0.049c-5.273 20.47-8.078 41.932-8.078 64.049 0 61.529 21.707 117.987 57.879 162.136-17.621 9.050-37.366 13.864-57.879 13.864-70.692 0-128-57.308-128-128 0-17.673-14.327-32-32-32s-32 14.327-32 32c0 77.137 45.489 143.65 111.104 174.177-19.309 20.527-31.104 48.198-31.104 78.623 0 63.623 51.577 115.2 115.2 115.2s115.2-51.577 115.2-115.2c0-31.497-12.64-60.041-33.124-80.837 7.206-3.474 14.226-7.529 20.989-12.030 42.228 30.188 93.893 48.067 149.735 48.067 33.96 0 66.376-6.613 96.030-18.621l-0.030 210.621zM435.2 672c-28.277 0-51.2-22.923-51.2-51.2s22.923-51.2 51.2-51.2c28.277 0 51.2 22.923 51.2 51.2s-22.923 51.2-51.2 51.2z" />
<glyph unicode="&#xe91f;" glyph-name="group" d="M768 704c35.346 0 64-28.654 64-64v-512c0-35.346-28.654-64-64-64h-640c-35.346 0-64 28.654-64 64v512c0 35.346 28.654 64 64 64h640zM768 640h-640v-512h640v512zM451.2 576c63.623 0 115.2-51.577 115.2-115.2 0-31.465-12.615-59.984-33.063-80.775 63.192-31.364 106.663-96.618 106.663-172.025 0-17.673-14.327-32-32-32s-32 14.327-32 32c0 70.692-57.308 128-128 128s-128-57.308-128-128c0-17.673-14.327-32-32-32s-32 14.327-32 32c0 77.137 45.489 143.65 111.104 174.177-19.309 20.527-31.104 48.198-31.104 78.623 0 63.623 51.577 115.2 115.2 115.2zM864 832c49.901 0 90.909-38.073 95.561-86.755l0.439-9.245v-512c0-17.673-14.327-32-32-32-15.709 0-28.775 11.32-31.484 26.248l-0.516 5.752v512c0 15.709-11.32 28.775-26.248 31.484l-5.752 0.516h-576c-17.673 0-32 14.327-32 32 0 15.709 11.32 28.775 26.248 31.484l5.752 0.516h576zM451.2 512c-28.277 0-51.2-22.923-51.2-51.2s22.923-51.2 51.2-51.2c28.277 0 51.2 22.923 51.2 51.2s-22.923 51.2-51.2 51.2z" />
<glyph unicode="&#xe920;" glyph-name="info" horiz-adv-x="1088" d="M864 864c35.346 0 64-28.654 64-64v-704c0-35.346-28.654-64-64-64h-576c-35.346 0-64 28.654-64 64v704c0 35.346 28.654 64 64 64h576zM864 800h-576v-704h576v704zM656 320c17.673 0 32-14.327 32-32s-14.327-32-32-32h-272c-17.673 0-32 14.327-32 32s14.327 32 32 32h272zM768 480c17.673 0 32-14.327 32-32s-14.327-32-32-32h-384c-17.673 0-32 14.327-32 32s14.327 32 32 32h384zM768 640c17.673 0 32-14.327 32-32s-14.327-32-32-32h-384c-17.673 0-32 14.327-32 32s14.327 32 32 32h384z" />
<glyph unicode="&#xe921;" glyph-name="right" d="M512 832c212.077 0 384-171.923 384-384s-171.923-384-384-384c-212.077 0-384 171.923-384 384s171.923 384 384 384zM512 768c-176.731 0-320-143.269-320-320s143.269-320 320-320c176.731 0 320 143.269 320 320s-143.269 320-320 320zM743.18 583.858c11.126-11.090 12.388-28.331 3.769-40.817l-3.696-4.438-272.589-273.473c-11.103-11.139-28.368-12.39-40.854-3.743l-4.437 3.706-160.279 160.279c-12.497 12.497-12.497 32.758 0 45.255 11.108 11.108 28.351 12.342 40.823 3.703l4.432-3.703 137.587-137.571 249.989 250.729c12.477 12.517 32.738 12.55 45.255 0.073z" />
<glyph unicode="&#xe922;" glyph-name="limit" d="M512 816.012c265.094 0 480-214.903 480-480 0-85.431-22.374-167.674-64.25-240.051v0l-9.242-15.974h-813.015l-9.243 15.974c-41.874 72.378-64.251 154.62-64.251 240.051 0 265.097 214.903 480 480 480zM512 752.012c-229.75 0-416-186.25-416-416 0-60.628 12.968-119.314 37.552-172.992v0l9.296-19.008h738.24l9.357 19.008c21.856 47.714 34.528 99.384 37.075 152.859v0l0.48 20.133c0 229.75-186.246 416-416 416zM730.291 454.639c11.11-11.108 12.346-28.351 3.706-40.823l-3.706-4.431-155.741-155.765c0.95-4.385 1.45-8.938 1.45-13.608 0-35.347-28.653-64-64-64s-64 28.653-64 64c0 35.347 28.654 64 64 64 6.756 0 13.267-1.047 19.381-2.987l153.656 153.614c12.499 12.497 32.762 12.497 45.254 0zM512 688.012c146.261 0 275.693-90.038 328-224.021 6.432-16.463-1.702-35.020-18.17-41.447-16.461-6.428-35.014 1.708-41.446 18.17-42.797 109.624-148.705 183.298-268.384 183.298-130.844 0-244.278-88.020-278.001-212.464-4.623-17.058-22.198-27.139-39.256-22.516s-27.139 22.198-22.516 39.256c41.235 152.166 179.849 259.724 339.773 259.724z" />
<glyph unicode="&#xe923;" glyph-name="pre" d="M661.216 786.102c9.997 9.997 26.206 9.997 36.204 0 8.887-8.887 9.874-22.681 2.962-32.658l-2.962-3.545-302.822-302.82 302.822-302.813c8.887-8.887 9.874-22.681 2.962-32.658l-2.962-3.545c-8.887-8.887-22.681-9.874-32.658-2.962l-3.545 2.962-320.918 320.918c-8.887 8.887-9.874 22.681-2.962 32.658l2.962 3.545 320.918 320.918z" />
<glyph unicode="&#xe924;" glyph-name="next" d="M362.678 786.102c-9.997 9.997-26.206 9.997-36.204 0-8.887-8.887-9.874-22.681-2.962-32.658l2.962-3.545 302.822-302.82-302.822-302.813c-8.887-8.887-9.874-22.681-2.962-32.658l2.962-3.545c8.887-8.887 22.681-9.874 32.658-2.962l3.545 2.962 320.918 320.918c8.887 8.887 9.874 22.681 2.962 32.658l-2.962 3.545-320.918 320.918z" />
<glyph unicode="&#xe925;" glyph-name="usb" d="M1024 960v-1024h-1024v1024h1024zM995.556 931.556h-967.111v-967.111h967.111v967.111zM497.778 760.889l71.111-113.778h-56.889l0.011-224.245c13.761 12.041 31.747 20.637 53.685 25.691l10.961 2.598 9.7 2.499 8.514 2.49c27.814 8.8 35.235 19.057 36.897 47.911l0.010 0.834h-20.224v85.333h85.333v-85.333l-36.712-0.024c-2.803-48.701-19.151-65.641-69.854-79.48l-11.866-3.042c-2.075-0.502-4.2-1.003-6.375-1.504-31.592-7.278-50.713-22.335-59.087-45.773l-0.995-3.069 0.029-124.907c23.2-5.984 40.666-26.238 42.482-50.843l0.156-4.246c0-31.419-25.47-56.889-56.889-56.889s-56.889 25.47-56.889 56.889c0 26.508 18.13 48.781 42.666 55.096l0.001 36.182-0.765 4.596c-6.427 33.709-25.651 50.082-60.668 51.569l-5.385 0.112c-52.015 0-83.91 21.519-90.824 64.598l-0.709 5.273-0.008 41.732c-15.563 6.364-26.529 21.656-26.529 39.509 0 23.564 19.103 42.667 42.667 42.667s42.667-19.103 42.667-42.667c0-19.3-12.814-35.607-30.399-40.877l-0.040-38.789c3.088-27.718 20.576-41.581 57.229-42.897l5.947-0.104c28.228 0 50.704-7.602 66.867-22.349l-0.049 301.461h-56.889l71.111 113.778z" />
<glyph unicode="&#xe926;" glyph-name="port3" d="M1024 960v-1024h-1024v1024h1024zM995.556 931.556h-967.111v-967.111h967.111v967.111zM625.778 789.333v-56.889h113.778v-113.778h170.667v-540.444h-796.444v540.444h170.667v113.778h113.778v56.889h227.556zM597.333 760.917h-170.667v-56.917l-113.778 0.028v-113.806l-170.667 0.028v-483.556h739.556v483.556l-170.667-0.028v113.806l-113.778-0.028v56.917zM312.889 334.222v-142.222h-28.444v142.222h28.444zM398.222 334.222v-142.222h-28.444v142.222h28.444zM483.556 334.222v-142.222h-28.444v142.222h28.444zM568.889 334.222v-142.222h-28.444v142.222h28.444zM654.222 334.222v-142.222h-28.444v142.222h28.444zM739.556 334.222v-142.222h-28.444v142.222h28.444z" />
<glyph unicode="&#xe927;" glyph-name="add-static" d="M511.157 832c212.077 0 384-171.923 384-384s-171.923-384-384-384c-117.803 0-226.899 53.422-299.329 143.443-11.079 13.769-8.898 33.913 4.872 44.992s33.913 8.898 44.992-4.872c60.408-75.079 151.251-119.563 249.465-119.563 176.731 0 320 143.269 320 320s-143.269 320-320 320c-98.574 0-189.715-44.813-250.106-120.361-11.035-13.805-31.171-16.050-44.976-5.015s-16.050 31.171-5.015 44.976c72.41 90.584 181.862 144.4 300.097 144.4zM466.667 588.49c12.497 12.497 32.758 12.497 45.255 0v0l117.019-117.019 3.703-4.432c8.64-12.472 7.405-29.715-3.703-40.823v0l-117.019-117.019-4.432-3.703c-12.472-8.64-29.715-7.405-40.823 3.703v0l-3.703 4.432c-8.64 12.472-7.405 29.715 3.703 40.823v0l62.357 62.419-369.024-0.027c-17.673 0-32 14.327-32 32s14.327 32 32 32v0l369.024 0.027-62.357 62.365-3.703 4.432c-8.64 12.472-7.405 29.715 3.703 40.823z" />
<glyph unicode="&#xe928;" glyph-name="enable" d="M512 832c212.077 0 384-171.923 384-384s-171.923-384-384-384c-212.077 0-384 171.923-384 384s171.923 384 384 384zM512 768c-176.731 0-320-143.269-320-320s143.269-320 320-320c176.731 0 320 143.269 320 320s-143.269 320-320 320zM469.718 664.257l223.153-192c14.839-12.767 14.839-35.747 0-48.514l-223.153-192c-20.746-17.849-52.871-3.11-52.871 24.257v384c0 27.367 32.125 42.107 52.871 24.257zM480.847 570.24v-244.416l142.080 122.176-142.080 122.24z" />
<glyph unicode="&#xe929;" glyph-name="preview" d="M805.333 832c47.128 0 85.858-35.958 90.252-81.935l0.415-8.732v-300.824c0-17.673-14.327-32-32-32-15.709 0-28.775 11.32-31.484 26.248l-0.516 5.752v300.824c0 13.091-9.433 23.979-21.873 26.237l-4.793 0.43h-586.667c-13.091 0-23.979-9.433-26.237-21.873l-0.43-4.793v-586.667c0-13.091 9.433-23.979 21.873-26.237l4.793-0.43h295.594c17.673 0 32-14.327 32-32 0-15.709-11.32-28.775-26.248-31.484l-5.752-0.516h-295.594c-47.128 0-85.858 35.958-90.252 81.935l-0.415 8.732v586.667c0 47.128 35.958 85.858 81.935 90.252l8.732 0.415h586.667zM512 672c123.712 0 224-100.288 224-224 0-52.965-18.383-101.637-49.116-139.983l189.396-189.39c12.497-12.497 12.497-32.758 0-45.255-11.108-11.108-28.351-12.342-40.823-3.703l-4.432 3.703-190.903 190.863c-36.306-25.36-80.477-40.236-128.123-40.236-123.712 0-224 100.288-224 224s100.288 224 224 224zM512 608c-88.366 0-160-71.634-160-160s71.634-160 160-160c88.366 0 160 71.634 160 160s-71.634 160-160 160z" />
<glyph unicode="&#xe92a;" glyph-name="download" d="M490.022 241.448l-179.85 179.85c-12.497 12.497-12.497 32.758 0 45.255s32.758 12.497 45.255 0l124.637-124.6-0.064 458.048c0 17.673 14.327 32 32 32s32-14.327 32-32l0.064-459.328 122.902 122.974c12.497 12.497 32.758 12.497 45.255 0s12.497-32.758 0-45.255l-176.944-176.944c-12.497-12.497-32.758-12.497-45.255 0zM160.914 64c-18.178 0-32.914 13.225-32.914 29.538v196.923c0 16.314 14.736 29.538 32.914 29.538s32.914-13.225 32.914-29.538v-167.385h636.343v167.385c0 16.314 14.736 29.538 32.914 29.538s32.914-13.225 32.914-29.538v-196.923c0-16.314-14.736-29.538-32.914-29.538h-702.171z" />
<glyph unicode="&#xe92b;" glyph-name="forced-offline" d="M768 832c70.692 0 128-57.308 128-128v-512c0-70.692-57.308-128-128-128h-512c-70.692 0-128 57.308-128 128v512c0 70.692 57.308 128 128 128h512zM768 768h-512c-32.821 0-59.872-24.707-63.569-56.536l-0.431-7.464v-512c0-32.821 24.707-59.872 56.536-63.569l7.464-0.431h512c32.821 0 59.872 24.707 63.569 56.536l0.431 7.464v512c0 32.821-24.707 59.872-56.536 63.569l-7.464 0.431zM641.603 555.345c11.108-11.108 12.342-28.351 3.703-40.823l-3.703-4.432-90.27-90.269 90.851-90.916c12.497-12.497 12.497-32.758 0-45.255-11.108-11.108-28.351-12.342-40.823-3.703l-4.432 3.703-90.845 90.923-89.896-89.897c-12.497-12.497-32.758-12.497-45.255 0-11.108 11.108-12.342 28.351-3.703 40.823l3.703 4.432 89.903 89.891-89.829 89.75c-12.497 12.497-12.497 32.758 0 45.255 11.108 11.108 28.351 12.342 40.823 3.703l4.432-3.703 89.822-89.757 90.263 90.275c12.497 12.497 32.758 12.497 45.255 0zM288 704c17.673 0 32-14.327 32-32s-14.327-32-32-32c-17.673 0-32 14.327-32 32s14.327 32 32 32zM384 704c17.673 0 32-14.327 32-32s-14.327-32-32-32c-17.673 0-32 14.327-32 32s14.327 32 32 32z" />
<glyph unicode="&#xe92c;" glyph-name="refresh" d="M896 480c17.673 0 32-14.327 32-32 0-229.765-186.619-416-416.791-416-145.182 0-277.037 74.767-352.424 193.792l-9.116-36.723c-4.276-17.148-21.643-27.583-38.791-23.308s-27.583 21.643-23.308 38.791l29.195 117.095c4.276 17.148 21.643 27.583 38.791 23.308l117.095-29.195c17.148-4.276 27.583-21.643 23.308-38.791s-21.643-27.583-38.791-23.308l-47.695 11.82c63.208-103.918 176.601-169.481 301.736-169.481 194.856 0 352.791 157.611 352.791 352 0 17.673 14.327 32 32 32zM511.914 864c143.821 0 274.564-73.372 350.289-190.456l6.604 34.319c3.372 17.348 20.17 28.678 37.518 25.306s28.678-20.17 25.306-37.518l-23.027-118.462c-3.372-17.348-20.17-28.678-37.518-25.306l-118.462 23.027c-17.348 3.372-28.678 20.17-25.306 37.518s20.17 28.678 37.518 25.306l50.312-9.701c-62.904 105.357-177.104 171.968-303.234 171.968-194.856 0-352.791-157.611-352.791-352 0-17.673-14.327-32-32-32s-32 14.327-32 32c0 229.765 186.619 416 416.791 416z" />
<glyph unicode="&#xe92d;" glyph-name="print" d="M704 896c49.901 0 90.909-38.073 95.561-86.755l0.439-9.245v-31.936l64-0.064c49.901 0 90.909-38.073 95.561-86.755l0.439-9.245v-414.107c0-49.901-38.073-90.909-86.755-95.561l-9.245-0.439-64 0.027v-65.92c0-49.901-38.073-90.909-86.755-95.561l-9.245-0.439h-384c-49.901 0-90.909 38.073-95.561 86.755l-0.439 9.245v65.92l-64-0.027c-49.901 0-90.909 38.073-95.561 86.755l-0.439 9.245v414.107c0 49.901 38.073 90.909 86.755 95.561l9.245 0.439 64 0.064v31.936c0 49.901 38.073 90.909 86.755 95.561l9.245 0.439h384zM736 347.2h-448v-251.2c0-15.709 11.32-28.775 26.248-31.484l5.752-0.516h384c15.709 0 28.775 11.32 31.484 26.248l0.516 5.752v251.2zM864 704h-704c-15.709 0-28.775-11.32-31.484-26.248l-0.516-5.752v-414.107c0-15.709 11.32-28.775 26.248-31.484l5.752-0.516 64 0.027v121.28l-32-0.019c-17.673 0-32 14.327-32 32 0 15.709 11.32 28.775 26.248 31.484l5.752 0.516h646.257c17.673 0 32-14.327 32-32 0-15.709-11.32-28.775-26.248-31.484l-5.752-0.516-38.257 0.019v-121.28l64-0.027c15.709 0 28.775 11.32 31.484 26.248l0.516 5.752v414.107c0 15.709-11.32 28.775-26.248 31.484l-5.752 0.516zM798.754 608c17.673 0 32-14.327 32-32 0-15.709-11.32-28.775-26.248-31.484l-5.752-0.516h-190.754c-17.673 0-32 14.327-32 32 0 15.709 11.32 28.775 26.248 31.484l5.752 0.516h190.754zM704 832h-384c-15.709 0-28.775-11.32-31.484-26.248l-0.516-5.752v-31.936h448v31.936c0 15.709-11.32 28.775-26.248 31.484l-5.752 0.516z" />
<glyph unicode="&#xe92e;" glyph-name="video" d="M682.667 746.667c23.564 0 42.667-19.103 42.667-42.667v-117.205l141.29 134.141c17.089 16.224 44.095 15.523 60.319-1.566 7.527-7.929 11.724-18.444 11.724-29.377v-483.985c0-23.564-19.103-42.667-42.667-42.667-10.933 0-21.448 4.197-29.377 11.724l-141.29 134.183v-117.248c0-23.564-19.103-42.667-42.667-42.667h-554.667c-23.564 0-42.667 19.103-42.667 42.667v512c0 23.564 19.103 42.667 42.667 42.667h554.667zM682.667 704h-554.667v-512h554.667v512zM896 689.993l-170.624-161.993 0.683-160.683 169.941-161.31v483.985zM316.952 641.778c11.782 0 21.333-9.551 21.333-21.333 0-10.473-7.547-19.183-17.499-20.99l-3.835-0.344h-121.905c-11.782 0-21.333 9.551-21.333 21.333 0 10.473 7.547 19.183 17.499 20.99l3.835 0.344h121.905z" />
<glyph unicode="&#xe92f;" glyph-name="recharge" d="M512 864c229.75 0 416-186.25 416-416 0-35.78-4.525-70.991-13.378-105.019-4.45-17.104-21.922-27.362-39.026-22.912s-27.362 21.922-22.912 39.026c7.487 28.777 11.316 58.574 11.316 88.905 0 194.404-157.596 352-352 352s-352-157.596-352-352c0-194.404 157.596-352 352-352 28.244 0 56.028 3.32 82.963 9.825 17.179 4.149 34.469-6.414 38.618-23.593s-6.414-34.469-23.593-38.618c-31.845-7.691-64.672-11.614-97.988-11.614-229.75 0-416 186.25-416 416s186.25 416 416 416zM768 352c17.673 0 32-14.327 32-32v-96h96c17.673 0 32-14.327 32-32s-14.327-32-32-32h-96v-96c0-17.673-14.327-32-32-32s-32 14.327-32 32v96h-96c-17.673 0-32 14.327-32 32s14.327 32 32 32h96v96c0 17.673 14.327 32 32 32zM432.227 662.627l78.493-78.499 78.585 78.499c11.108 11.108 28.351 12.342 40.823 3.703l4.432-3.703c11.108-11.108 12.342-28.351 3.703-40.823l-3.703-4.432-73.471-73.373h78.912c17.673 0 32-14.327 32-32s-14.327-32-32-32h-96v-64h96c17.673 0 32-14.327 32-32s-14.327-32-32-32h-96v-96c0-17.673-14.327-32-32-32s-32 14.327-32 32v96h-96c-17.673 0-32 14.327-32 32s14.327 32 32 32h96v64h-96c-17.673 0-32 14.327-32 32s14.327 32 32 32h76.352l-73.379 73.373c-12.497 12.497-12.497 32.758 0 45.255s32.758 12.497 45.255 0z" />
<glyph unicode="&#xe930;" glyph-name="qrcode" d="M416 416c35.346 0 64-28.654 64-64v-256c0-35.346-28.654-64-64-64h-256c-35.346 0-64 28.654-64 64v256c0 35.346 28.654 64 64 64h256zM608 224v-160c0-17.673-14.327-32-32-32s-32 14.327-32 32v320c0 17.673 14.327 32 32 32h192c17.673 0 32-14.327 32-32v-96h64v96c0 17.673 14.327 32 32 32s32-14.327 32-32v-128c0-15.709-11.32-28.775-26.248-31.484l-5.752-0.516h-288zM896 160c17.673 0 32-14.327 32-32v-64c0-17.673-14.327-32-32-32s-32 14.327-32 32v64c0 17.673 14.327 32 32 32zM800 160c17.673 0 32-14.327 32-32v-64c0-17.673-14.327-32-32-32s-32 14.327-32 32v64c0 17.673 14.327 32 32 32zM704 160c17.673 0 32-14.327 32-32v-64c0-17.673-14.327-32-32-32s-32 14.327-32 32v64c0 17.673 14.327 32 32 32zM416 352h-256v-256h256v256zM320 256v-64h-64v64h64zM416 864c35.346 0 64-28.654 64-64v-256c0-35.346-28.654-64-64-64h-256c-35.346 0-64 28.654-64 64v256c0 35.346 28.654 64 64 64h256zM864 864c35.346 0 64-28.654 64-64v-256c0-35.346-28.654-64-64-64h-256c-35.346 0-64 28.654-64 64v256c0 35.346 28.654 64 64 64h256zM416 800h-256v-256h256v256zM864 800h-256v-256h256v256zM320 704v-64h-64v64h64zM768 704v-64h-64v64h64z" />
<glyph unicode="&#xe931;" glyph-name="reback" d="M821.384 487.155l61.385-99.104c48.844-73.639 28.743-172.932-44.897-221.775-22.472-14.905-48.283-23.848-75.010-26.1l-13.429-0.564-129.615 0.040 33.873-30.281c11.707-10.475 13.896-27.623 5.961-40.555l-3.451-4.63c-10.475-11.707-27.623-13.896-40.555-5.962l-4.63 3.451-91.8 82.203c-13.752 13.752-15.003 35.273-2.781 51.354l4.071 4.648 90.51 80.982c13.171 11.784 33.401 10.66 45.185-2.51 10.475-11.707 10.751-28.992 1.433-40.966l-3.943-4.22-33.105-29.516 128.847-0.040c18.876 0 37.333 5.565 53.064 15.998 41.585 27.582 54.714 81.977 31.236 125.813l-66.753 108.024 54.404 33.708zM310.589 534.395l1.99-5.85 24.878-118.875c3.62-17.298-7.468-34.256-24.767-37.876-15.376-3.218-30.484 5.186-36.193 19.242l-1.683 5.524-10.068 47.795-56.748-91.681c-10.434-15.73-15.998-34.188-15.998-53.064 0-49.901 38.073-90.909 86.755-95.561l9.245-0.439h136.672v-64h-136.672c-88.366 0-160 71.634-160 160 0 26.966 6.814 53.419 19.375 76.411l58.811 95.149-38.583-12.713c-14.925-4.901-30.87 1.777-38.102 15.115l-2.284 5.304c-4.901 14.925 1.777 30.87 15.115 38.102l5.304 2.284 117.089 38.4c18.786 5.034 38.048-4.644 45.865-23.268zM607.156 805.322c17.815-11.816 33.081-27.082 45.432-45.731l60.031-96.868 9.744 46.419c3.218 15.376 16.974 25.846 32.141 25.44l5.736-0.674c15.376-3.218 25.846-16.974 25.44-32.141l-0.674-5.736-25.29-120.602c-5.034-18.786-23.046-30.629-43.083-28.086l-6.061 1.202-115.388 37.893c-16.791 5.514-25.933 23.596-20.419 40.387 4.901 14.925 19.733 23.807 34.761 21.723l5.626-1.305 39.867-13.064-56.3 90.87c-7.090 10.689-16.249 19.848-26.938 26.938-44.184 29.306-103.759 17.246-132.53-26.104l-71.526-115.443-54.404 33.708 72.061 116.277c48.844 73.639 148.136 93.74 221.775 44.897z" />
<glyph unicode="&#xe932;" glyph-name="screen-16" d="M896 789.333c23.564 0 42.667-19.103 42.667-42.667v-597.333c0-23.564-19.103-42.667-42.667-42.667h-768c-23.564 0-42.667 19.103-42.667 42.667v597.333c0 23.564 19.103 42.667 42.667 42.667h768zM281.6 277.333h-153.6v-128h153.6v128zM490.667 277.333h-166.4v-128h166.4v128zM704 277.333h-170.709v-128h170.709v128zM896 277.333h-149.376v-128h149.376v128zM281.6 448h-153.6v-128h153.6v128zM490.667 448h-166.4v-128h166.4v128zM704 448h-170.709v-128h170.709v128zM896 448h-149.376v-128h149.376v128zM281.6 597.333h-153.6v-106.667h153.6v106.667zM490.667 597.333h-166.4v-106.667h166.4v106.667zM704 597.333h-170.667v-106.667h170.667v106.667zM896 597.333h-149.333v-106.667h149.333v106.667zM281.6 746.667h-153.6v-106.667h153.6v106.667zM490.667 746.667h-166.4v-106.667h166.4v106.667zM704 746.667h-170.667v-106.667h170.667v106.667zM896 746.667h-149.333v-106.667h149.333v106.667z" />
<glyph unicode="&#xe933;" glyph-name="screen-10" d="M896 789.333c23.564 0 42.667-19.103 42.667-42.667v-597.333c0-23.564-19.103-42.667-42.667-42.667h-768c-23.564 0-42.667 19.103-42.667 42.667v597.333c0 23.564 19.103 42.667 42.667 42.667h768zM469.333 426.667h-341.333v-277.333h341.333v277.333zM682.667 256h-170.667v-106.667h170.667v106.667zM896 256h-170.667v-106.667h170.667v106.667zM682.667 426.667h-170.667v-128h170.667v128zM896 426.667h-170.667v-128h170.667v128zM469.333 746.667h-341.333v-277.333h341.333v277.333zM682.667 597.333h-170.667v-128h170.667v128zM896 597.333h-170.667v-128h170.667v128zM682.667 746.667h-170.667v-106.667h170.667v106.667zM896 746.667h-170.667v-106.667h170.667v106.667z" />
<glyph unicode="&#xe934;" glyph-name="screen-4" d="M896 789.333c23.564 0 42.667-19.103 42.667-42.667v-597.333c0-23.564-19.103-42.667-42.667-42.667h-768c-23.564 0-42.667 19.103-42.667 42.667v597.333c0 23.564 19.103 42.667 42.667 42.667h768zM490.667 426.667h-362.667v-277.333h362.667v277.333zM896 426.667h-362.709v-277.333h362.709v277.333zM490.667 746.667h-362.667v-277.333h362.667v277.333zM896 746.667h-362.667v-277.333h362.667v277.333z" />
<glyph unicode="&#xe935;" glyph-name="screen-1" d="M896 789.333c23.564 0 42.667-19.103 42.667-42.667v-597.333c0-23.564-19.103-42.667-42.667-42.667h-768c-23.564 0-42.667 19.103-42.667 42.667v597.333c0 23.564 19.103 42.667 42.667 42.667h768zM896 746.667h-768v-597.333h768v597.333z" />
<glyph unicode="&#xe936;" glyph-name="full-screen" d="M441.752 377.752c7.405-7.405 8.228-18.901 2.468-27.215l-2.468-2.955-176.962-176.915h119.211c10.473 0 19.183-7.547 20.99-17.499l0.344-3.835c0-10.473-7.547-19.183-17.499-20.99l-3.835-0.344h-170.667c-10.473 0-19.183 7.547-20.99 17.499l-0.344 3.835v170.667c0 11.782 9.551 21.333 21.333 21.333 10.473 0 19.183-7.547 20.99-17.499l0.344-3.835-0.043-119.168 176.958 176.92c8.331 8.331 21.839 8.331 30.17 0zM609.464 380.22l2.955-2.468 176.915-176.92v119.168c0 10.473 7.547 19.183 17.499 20.99l3.835 0.344c10.473 0 19.183-7.547 20.99-17.499l0.344-3.835v-170.667c0-10.473-7.547-19.183-17.499-20.99l-3.835-0.344h-170.667c-11.782 0-21.333 9.551-21.333 21.333 0 10.473 7.547 19.183 17.499 20.99l3.835 0.344h119.168l-176.92 176.915c-8.331 8.331-8.331 21.839 0 30.17 7.405 7.405 18.901 8.228 27.215 2.468zM810.667 768c10.473 0 19.183-7.547 20.99-17.499l0.344-3.835v-170.667c0-11.782-9.551-21.333-21.333-21.333-10.473 0-19.183 7.547-20.99 17.499l-0.344 3.835v119.211l-176.915-176.962c-8.331-8.331-21.839-8.331-30.17 0-7.405 7.405-8.228 18.901-2.468 27.215l2.468 2.955 176.877 176.915h-119.125c-10.473 0-19.183 7.547-20.99 17.499l-0.344 3.835c0 10.473 7.547 19.183 17.499 20.99l3.835 0.344h170.667zM384 768c11.782 0 21.333-9.551 21.333-21.333 0-10.473-7.547-19.183-17.499-20.99l-3.835-0.344-119.211 0.043 176.962-176.958c8.331-8.331 8.331-21.839 0-30.17-7.405-7.405-18.901-8.228-27.215-2.468l-2.955 2.468-176.915 176.92v-119.168c0-10.473-7.547-19.183-17.499-20.99l-3.835-0.344c-10.473 0-19.183 7.547-20.99 17.499l-0.344 3.835v170.667c0 10.473 7.547 19.183 17.499 20.99l3.835 0.344h170.667z" />
<glyph unicode="&#xe937;" glyph-name="substream" d="M832 810.667c23.564 0 42.667-19.103 42.667-42.667v0-640c0-23.564-19.103-42.667-42.667-42.667v0h-640c-23.564 0-42.667 19.103-42.667 42.667v0 449.255c0 5.689 2.272 11.142 6.312 15.148v0l213.87 212.078c3.995 3.962 9.394 6.185 15.021 6.185v0zM832 768h-438.699l-201.301-199.595v-440.405h640v640zM511.232 594.517c76.459 0 118.272-31.659 126.635-96.171v0h-46.592c-4.181 19.115-11.947 33.451-23.893 41.813-13.141 9.557-32.256 14.336-56.747 14.336-21.504 0-38.229-3.584-50.176-11.947-13.141-7.765-19.712-18.517-19.712-32.256 0-13.141 8.363-24.491 26.283-33.451 11.349-5.376 32.853-11.947 63.915-20.309 37.035-8.96 63.317-18.517 79.445-28.672 24.491-15.531 37.035-36.437 37.035-63.317 0-63.317-43.605-95.573-130.816-95.573-81.237 0-125.44 35.84-132.608 106.923v0h46.592c3.584-24.491 12.544-41.813 25.685-52.565 13.141-9.557 32.853-14.336 59.136-14.336 54.955 0 83.029 17.92 83.029 52.565 0 17.323-10.155 30.464-29.269 40.021-10.155 4.779-32.256 11.349-65.707 19.712-36.437 8.96-62.123 17.92-76.459 27.477-23.893 14.336-35.243 34.048-35.243 60.331s11.349 46.592 34.645 62.123c21.504 15.531 50.176 23.296 84.821 23.296z" />
<glyph unicode="&#xe938;" glyph-name="main-stream" d="M832 810.667c23.564 0 42.667-19.103 42.667-42.667v0-640c0-23.564-19.103-42.667-42.667-42.667v0h-640c-23.564 0-42.667 19.103-42.667 42.667v0 449.255c0 5.689 2.272 11.142 6.312 15.148v0l213.87 212.078c3.995 3.962 9.394 6.185 15.021 6.185v0zM832 768h-438.699l-201.301-199.595v-440.405h640v640zM661.033 579.734l0.3-3.734v-276.906c0-11.782-9.551-21.333-21.333-21.333-10.473 0-19.183 7.547-20.99 17.499l-0.344 3.835v211.029l-86.472-119.563c-7.562-10.455-22.283-11.652-31.459-3.454l-2.836 3.081-92.566 122.283v-213.376c0-10.473-7.547-19.183-17.499-20.99l-3.835-0.344c-10.473 0-19.183 7.547-20.99 17.499l-0.344 3.835v276.906c0 19.175 22.85 28.047 35.878 15.643l2.465-2.768 113.508-149.964 108.197 149.591c11.368 15.716 35.363 9.159 38.318-8.769z" />
<glyph unicode="&#xe939;" glyph-name="stop-video" d="M341.333 618.667c141.385 0 256-114.615 256-256s-114.615-256-256-256c-141.385 0-256 114.615-256 256s114.615 256 256 256zM341.333 576c-117.821 0-213.333-95.513-213.333-213.333s95.513-213.333 213.333-213.333c117.821 0 213.333 95.513 213.333 213.333s-95.513 213.333-213.333 213.333zM405.333 448c11.782 0 21.333-9.551 21.333-21.333v-128c0-11.782-9.551-21.333-21.333-21.333h-128c-11.782 0-21.333 9.551-21.333 21.333v128c0 11.782 9.551 21.333 21.333 21.333h128zM725.333 789.333c23.564 0 42.667-19.103 42.667-42.667v-72.619l99.016 91.628c17.293 16.007 44.288 14.965 60.295-2.328 7.3-7.886 11.355-18.237 11.355-28.984v-359.396c0-23.564-19.103-42.667-42.667-42.667-10.747 0-21.097 4.055-28.984 11.355l-99.016 91.671v-72.661c0-23.564-19.103-42.667-42.667-42.667l-88.364-0.043c1.997 13.949 3.031 28.209 3.031 42.71h85.333v384h-426.667l-0.010-88.359c-14.605-2.090-28.87-5.236-42.713-9.359l0.056 97.718c0 23.564 19.103 42.667 42.667 42.667h426.667zM896 734.365l-127.957-118.471 0.555-123.008 127.403-117.917v359.396zM469.333 704c11.782 0 21.333-9.551 21.333-21.333 0-10.473-7.547-19.183-17.499-20.99l-3.835-0.344h-85.333c-11.782 0-21.333 9.551-21.333 21.333 0 10.473 7.547 19.183 17.499 20.99l3.835 0.344h85.333z" />
<glyph unicode="&#xe93a;" glyph-name="screenshot" d="M609.598 789.333c18.387 0 34.706-11.779 40.496-29.231l32.743-98.769h213.163c23.564 0 42.667-19.103 42.667-42.667v-469.333c0-23.564-19.103-42.667-42.667-42.667h-768c-23.564 0-42.667 19.103-42.667 42.667v469.333c0 23.564 19.103 42.667 42.667 42.667h213.163l32.853 98.786c5.795 17.443 22.11 29.214 40.49 29.214h195.092zM609.598 746.667l-195.096-0.012-32.853-98.786c-5.272-15.852-19.232-27.016-35.532-28.915l-4.954-0.287h-213.163v-469.333h768v469.333h-213.163c-16.719 0-31.728 9.739-38.666 24.625l-1.833 4.616-32.74 98.759zM512 576c94.257 0 170.667-76.41 170.667-170.667s-76.41-170.667-170.667-170.667c-94.257 0-170.667 76.41-170.667 170.667s76.41 170.667 170.667 170.667zM512 533.333c-70.692 0-128-57.308-128-128s57.308-128 128-128c70.692 0 128 57.308 128 128s-57.308 128-128 128zM768 533.333c23.564 0 42.667-19.103 42.667-42.667s-19.103-42.667-42.667-42.667c-23.564 0-42.667 19.103-42.667 42.667s19.103 42.667 42.667 42.667z" />
<glyph unicode="&#xe93b;" glyph-name="arrow" horiz-adv-x="313" d="M0.582 946.526h34.925l276.91-504.882-277.009-492.171h-34.825v26.947h19.079l261.928 465.381-262.009 477.777h-18.998z" />
<glyph unicode="&#xe93c;" glyph-name="lang" d="M509.867 876.8c235.641 0 426.667-191.025 426.667-426.667s-191.025-426.667-426.667-426.667c-235.641 0-426.667 191.025-426.667 426.667s191.025 426.667 426.667 426.667zM322.030 290.131l-137.715-0.006c49.321-100.158 143.503-174.252 256.322-196.059-53.156 54.871-94.168 121.708-118.608 196.065zM835.418 290.125l-137.715 0.006c-24.44-74.356-65.451-141.194-118.665-196.144 112.808 21.831 207.041 95.943 256.38 196.138zM629.793 290.168h-239.852c25.386-66.475 66.409-126.135 119.926-173.983 53.517 47.849 94.54 107.509 119.926 173.983zM305.528 546.184l-145.485-0.047c-8.373-30.578-12.843-62.769-12.843-96.004s4.471-65.426 12.843-96.004l145.475 0.007c-5.898 31.095-8.985 63.186-8.985 95.997 0 32.83 3.090 64.939 8.995 96.051zM648.868 546.15h-278.004c-6.797-31.118-10.332-63.269-10.332-96.017s3.535-64.898 10.332-96.017h278.004c6.797 31.118 10.332 63.269 10.332 96.017s-3.535 64.898-10.332 96.017zM859.69 546.137l-145.485 0.047c5.905-31.112 8.995-63.22 8.995-96.051 0-32.812-3.086-64.902-8.985-95.997l145.475-0.007c8.373 30.578 12.843 62.769 12.843 96.004s-4.471 65.426-12.843 96.004zM440.696 806.279l-12.12-2.625c-107.437-24.604-196.68-96.924-244.239-193.47l137.697-0.037c24.441 74.352 65.45 141.185 118.661 196.131zM509.867 784.082c-53.499-47.833-94.513-107.47-119.901-173.919h239.803c-25.388 66.449-66.402 126.086-119.901 173.919zM578.972 806.224l9.923-10.412c48.428-52.884 85.895-115.971 108.804-185.664l137.697 0.037c-49.345 100.173-143.567 174.267-256.425 196.040z" />
<glyph unicode="&#xe93d;" glyph-name="key" d="M512 928c17.673 0 32-14.327 32-32v-64h128c17.673 0 32-14.327 32-32s-14.327-32-32-32h-128v-64h160c17.673 0 32-14.327 32-32s-14.327-32-32-32h-160v-96l-0.143-1.963c126.351-15.684 224.143-123.44 224.143-254.037 0-141.385-114.615-256-256-256s-256 114.615-256 256c0 130.619 97.825 238.39 224.207 254.045-0.185 0.592-0.207 1.271-0.207 1.955v352c0 17.673 14.327 32 32 32zM512 480c-106.039 0-192-85.961-192-192s85.961-192 192-192c106.039 0 192 85.961 192 192s-85.961 192-192 192z" />
<glyph unicode="&#xe93e;" glyph-name="more-down" d="M214.627 630.628c-12.497 12.497-32.758 12.497-45.255 0s-12.497-32.758 0-45.255l320-320c12.497-12.497 32.758-12.497 45.255 0l320 320c12.497 12.497 12.497 32.758 0 45.255s-32.758 12.497-45.255 0l-297.373-297.373-297.373 297.373z" />
<glyph unicode="&#xe93f;" glyph-name="complete" d="M840.398 725.609c11.934 13.035 32.176 13.928 45.211 1.994 11.587-10.608 13.58-27.78 5.498-40.62l-3.504-4.591-468.752-512c-11.261-12.3-29.738-13.683-42.621-4.136l-4.544 4.092-235.248 256c-11.958 13.013-11.103 33.256 1.91 45.215 11.567 10.63 28.847 11.135 40.943 1.977l4.272-3.886 211.574-230.292 445.262 486.249z" />
<glyph unicode="&#xe940;" glyph-name="add1" d="M511.157 832c212.077 0 384-171.923 384-384s-171.923-384-384-384c-117.803 0-226.899 53.422-299.329 143.443-11.079 13.769-8.898 33.913 4.872 44.992s33.913 8.898 44.992-4.872c60.408-75.079 151.251-119.563 249.465-119.563 176.731 0 320 143.269 320 320s-143.269 320-320 320c-98.574 0-189.715-44.813-250.106-120.361-11.035-13.805-31.171-16.050-44.976-5.015s-16.050 31.171-5.015 44.976c72.41 90.584 181.862 144.4 300.097 144.4zM466.667 588.49c12.497 12.497 32.758 12.497 45.255 0v0l117.019-117.019 3.703-4.432c8.64-12.472 7.405-29.715-3.703-40.823v0l-117.019-117.019-4.432-3.703c-12.472-8.64-29.715-7.405-40.823 3.703v0l-3.703 4.432c-8.64 12.472-7.405 29.715 3.703 40.823v0l62.357 62.419-369.024-0.027c-17.673 0-32 14.327-32 32s14.327 32 32 32v0l369.024 0.027-62.357 62.365-3.703 4.432c-8.64 12.472-7.405 29.715 3.703 40.823z" />
<glyph unicode="&#xe941;" glyph-name="reconnect" d="M428.773 498.026c12.708-12.282 13.052-32.541 0.77-45.248-100.685-104.171-159.977-166.185-177.153-185.267-22.071-24.52-23.806-63.686 4.587-89.59 29.244-26.68 64.294-21.843 93.569 6.806 21.982 21.512 70.413 71.963 144.89 150.955 12.124 12.859 32.376 13.455 45.235 1.331s13.455-32.376 1.331-45.235c-75.104-79.657-123.867-130.455-146.693-152.792-51.5-50.398-124.352-60.452-181.469-8.348-56.546 51.593-53.038 130.786-9.018 179.69 17.931 19.92 77.258 81.972 178.702 186.928 12.282 12.708 32.541 13.052 45.248 0.77zM599.707 534.943c12.678-12.313 12.975-32.572 0.662-45.25-46.501-47.882-80.54-82.884-102.126-105.013-10.823-11.095-18.525-18.964-23.133-23.633-3.098-3.133-3.098-3.133-4.995-5.004-0.469-0.455-0.469-0.455-1.341-1.254-0.618-0.574-0.618-0.574-3.805-2.936-0.752-0.488-0.752-0.488-8.652-4.006s-25.715-6.743-36.968 6.941c-11.252 13.684-4.341 30.174-4.472 29.892s2.909 6.185 4.472 9.395c2.821 4.006 3.949 5.609 4.487 6.301l0.615 0.611c0.922 1.004 1.894 1.936 2.908 2.795l2.194 2.216c4.499 4.559 12.133 12.359 22.876 23.372 21.545 22.087 55.557 57.060 102.027 104.911 12.313 12.678 32.572 12.975 45.25 0.662zM784.969 734.369c59.044-52.795 52.759-137.878 6.002-186.081-18.135-18.696-74.080-75.812-167.943-171.459-12.379-12.614-32.639-12.805-45.253-0.426s-12.805 32.639-0.426 45.253c93.745 95.526 149.675 152.628 167.683 171.192 23.368 24.091 26.583 67.608-2.723 93.812-29.695 26.552-71.36 19.265-95.82-9.119l-0.545-0.59c-4.239-4.518-33.64-35.185-147.579-153.989-12.233-12.755-32.49-13.179-45.245-0.946s-13.179 32.49-0.946 45.245c73.157 76.281 146.111 152.382 145.833 152.060 46.058 53.447 127.993 67.777 186.962 15.049z" />
<glyph unicode="&#xe942;" glyph-name="disconnect" d="M435.394 518.008c12.708-12.282 13.052-32.541 0.77-45.248-100.685-104.171-159.977-166.185-177.153-185.267-22.071-24.52-23.806-63.686 4.587-89.59 29.244-26.68 64.294-21.843 93.569 6.806l9.482 9.423c25.014 25.148 70.24 72.415 135.407 141.532 12.124 12.859 32.376 13.455 45.235 1.331s13.455-32.376 1.331-45.235c-75.104-79.657-123.867-130.455-146.693-152.792-51.5-50.398-124.352-60.452-181.469-8.348-56.546 51.593-53.038 130.786-9.018 179.69 17.931 19.92 77.258 81.972 178.702 186.928 12.282 12.708 32.541 13.052 45.248 0.77zM500.556 445.846c12.742-12.247 13.143-32.504 0.896-45.246l-50.213-52.243c-12.247-12.742-32.504-13.143-45.246-0.896s-13.143 32.504-0.896 45.246l50.213 52.243c12.247 12.742 32.504 13.143 45.246 0.896zM848.157 709.092c46.777-63.917 22.94-145.834-32.818-183.263-7.569-5.081-20.647-13.803-39.24-26.168l-17.287-11.492c-34.169-22.705-81.961-54.412-143.395-95.135-14.731-9.765-34.588-5.739-44.353 8.992s-5.739 34.588 8.992 44.353c111.557 73.948 178.138 118.173 199.611 132.588 27.866 18.706 40.058 60.604 16.841 92.328-23.525 32.146-65.795 33.68-95.622 11.002-0.124-0.094-0.534-0.382-1.319-0.923l-2.094-1.438c-11.017-7.547-52.051-35.437-173.614-118.043-14.618-9.933-34.52-6.136-44.453 8.482s-6.136 34.52 8.482 44.453c87.418 59.404 174.6 118.674 174.261 118.417 56.164 42.703 139.287 39.685 186.005-24.151zM644.38 563.639c9.714-14.764 5.619-34.608-9.145-44.321l-61.915-40.735c-14.764-9.714-34.608-5.619-44.321 9.145s-5.619 34.608 9.145 44.321l61.915 40.735c14.764 9.714 34.608 5.619 44.321-9.145zM285.77 573.775l54.856-6.322c17.557-2.023 30.149-17.896 28.126-35.453s-17.896-30.149-35.453-28.126l-54.856 6.322c-17.557 2.023-30.149 17.896-28.126 35.453s17.896 30.149 35.453 28.126zM330.969 717.552l98.575-102.057c12.278-12.712 11.926-32.97-0.785-45.248s-32.97-11.926-45.248 0.785l-98.575 102.057c-12.278 12.712-11.926 32.97 0.785 45.248s32.97 11.926 45.248-0.785zM460.262 749.256c17.673 0 32-14.327 32-32v-48c0-17.673-14.327-32-32-32s-32 14.327-32 32v48c0 17.673 14.327 32 32 32z" />
<glyph unicode="&#xe943;" glyph-name="delete" d="M160 640c-17.673 0-32 14.327-32 32s14.327 32 32 32h128v64c0 27.844 12.673 48.678 36.242 58.049 12.144 4.828 21.503 5.96 42.133 6.023l9.572-0.031c2.705-0.021 3.606-0.028 5.091-0.033l258.962-0.008c2.664 0.007 3.552 0.009 5.050 0.019l3.003 0.022c27.585 0.215 37.827-0.475 51.706-5.993 23.569-9.371 36.242-30.204 36.242-58.049v-64h128c17.673 0 32-14.327 32-32s-14.327-32-32-32h-64v-512c0-35.346-28.654-64-64-64h-448c-35.346 0-64 28.654-64 64v512h-64zM736 640h-448v-512h448v512zM416 512c17.673 0 32-14.327 32-32v-192c0-17.673-14.327-32-32-32s-32 14.327-32 32v192c0 17.673 14.327 32 32 32zM608 512c17.673 0 32-14.327 32-32v-192c0-17.673-14.327-32-32-32s-32 14.327-32 32v192c0 17.673 14.327 32 32 32zM378.531 768.020l-15.455 0.003c-5.074-0.079-8.594-0.263-11.076-0.56v-63.463h320v63.463c-2.482 0.297-6.002 0.481-11.076 0.56l-12.372 0.020c-2.766-0.021-3.688-0.029-5.3-0.034l-259.252-0.009c-2.935 0.007-3.913 0.010-5.469 0.020z" />
<glyph unicode="&#xe944;" glyph-name="edit" d="M835.459 128c15.763 0 28.541-14.327 28.541-32s-12.778-32-28.541-32h-646.919c-15.763 0-28.541 14.327-28.541 32s12.778 32 28.541 32h646.919zM746.424 823.664l107.333-107.333c11.115-11.115 11.115-29.135 0-40.25l-456.163-456.163c-3.973-3.973-9.033-6.681-14.543-7.783l-134.166-26.833c-19.915-3.983-37.473 13.575-33.49 33.49l26.833 134.166c1.102 5.51 3.81 10.57 7.783 14.543l456.163 456.163c11.115 11.115 29.135 11.115 40.25 0zM645.741 682.768l-349.388-349.424-16.771-83.854 83.854 16.771 349.373 349.439-67.068 67.068zM726.299 763.289l-35.303-35.266 67.068-67.068 35.318 35.251-67.083 67.083z" />
<glyph unicode="&#xe945;" glyph-name="base-dn" d="M548.465 141.147c15.66-19.553 3.712-47.908-19.774-51.602l-5.203-0.402h-251.429c-25.051 0-39.714 27.052-27.916 47.692l2.939 4.312 59.029 73.765-210.112-0.055c-32.821 0-59.872 24.707-63.569 56.536l-0.431 7.464v402.286c0 35.346 28.654 64 64 64v0l502.848 0.009 0.009 22.848c0 32.821 24.707 59.872 56.536 63.569l7.464 0.431h237.714c32.821 0 59.872-24.707 63.569-56.536l0.431-7.464v-640c0-32.821-24.707-59.872-56.536-63.569l-7.464-0.431h-237.714c-32.821 0-59.872 24.707-63.569 56.536l-0.431 7.464-0.009 86.912h-109.504l59.121-73.765zM900.571 768h-237.714l-0.009-22.848 36.581-0.009c32.821 0 59.872-24.707 63.569-56.536l0.431-7.464v-402.286c0-35.346-28.654-64-64-64v0l-36.581 0.055 0.009-86.912h237.714v640zM338.62 153.152h118.272l-49.468 61.76h-19.2l-49.604-61.76zM699.429 681.143h-603.429v-402.286h603.429v402.286z" />
<glyph unicode="&#xe946;" glyph-name="user" d="M511.585 326.22c29.985 0 60.487-6.206 62.032-6.206 7.76-1.554 14.474-7.242 17.582-14.992 3.108-7.76 1.554-16.028-3.616-22.752l-36.699-47.039 60.487-114.769c5.161-9.822 2.58-22.234-6.206-29.467l-80.132-64.631c-4.134-3.616-9.304-5.161-14.474-5.161s-10.34 1.544-14.992 5.161l-78.587 64.631c-8.786 7.242-10.858 19.126-5.688 28.949l59.969 114.769-37.217 47.557c-5.17 6.206-6.206 14.992-3.616 22.752 3.098 7.75 9.304 13.438 17.573 14.992 1.554 0 33.61 6.206 63.586 6.206zM511.077 209.379l-49.629-94.606 49.111-40.325 50.665 40.325-50.147 94.606zM645.998 341.72c8.786-7.242 10.858-7.75 31.539-11.367 19.644-3.626 49.111-8.796 102.356-24.815 103.402-31.021 120.457-144.245 115.287-199.552-1.017-13.438-12.393-23.788-26.349-23.788h-204.214c-14.474 0-26.368 11.894-26.368 26.368s11.894 26.368 26.368 26.368h177.836c-2.062 35.673-14.474 100.812-78.060 120.447-50.147 14.992-78.069 20.172-96.16 23.27-22.752 4.134-36.191 6.196-55.835 22.225-11.376 9.304-12.93 25.851-3.616 37.227 9.304 11.367 25.841 12.92 37.217 3.616zM400.96 323.102c3.616-13.956-4.652-28.431-18.618-32.565-22.752-6.206-43.941-9.822-62.559-13.448-37.227-6.724-66.175-11.885-87.374-31.529-31.529-28.949-46.013-42.905-50.147-111.143h171.122c14.474 0 26.368-11.894 26.368-26.368 0.019-14.474-12.393-25.851-26.867-25.851h-198.517c-7.242 0-13.956 3.108-18.618 7.75-5.17 5.18-7.75 11.904-7.75 19.126 2.062 104.428 21.716 132.341 68.238 175.764 32.575 30.503 72.381 37.227 114.251 44.469 18.618 3.108 37.735 6.724 57.907 12.412 13.956 3.626 28.431-4.652 32.565-18.618zM531.229 876.293c4.652 0 9.304-0.528 12.92-0.528 16.028 0 36.191-12.402 59.451-37.735 24.815 4.652 59.451 0.528 86.338-32.565 29.467-37.217 25.851-107.527 21.716-143.727 7.232-5.678 14.474-13.438 19.644-24.815 8.278-19.126 2.062-45.495-7.242-80.65-2.072-7.242-3.616-13.956-4.652-18.091-5.17-26.359-21.716-38.771-34.637-47.557-46.003-119.948-115.785-135.459-171.103-135.459-74.444 0-138.029 50.157-172.676 134.423-13.956 7.242-31.021 20.153-36.709 34.119-10.34 24.306-20.68 93.052-8.786 115.287 5.688 10.849 16.019 16.537 26.368 19.644-10.35 34.637-23.788 85.82 26.359 160.782 27.922 40.843 94.088 47.049 102.874 46.521 5.688-0.518 14.474 0.528 18.091 1.036 12.412 10.858 32.057 10.34 62.041 9.314zM500.218 824.094c-16.019-11.376-42.387-11.376-51.691-10.858-10.858-0.518-46.531-8.796-56.353-23.261-29.269-43.118-30.393-72.011-24.911-97.096 36.992 19.15 84.734 17.018 131.411 14.873 43.423-2.062 88.4-3.616 116.313 12.92 10.34 6.196 23.779 3.098 29.985-7.76 6.206-10.34 3.098-23.769-7.75-29.975-39.289-23.788-90.99-21.198-141.127-19.126-46.448 1.93-90.619 3.868-116.861-14.531l0.011 0.594c0.518-2.072 0.518-4.134 0.518-5.688 0-4.134-0.518-9.304-1.554-13.438-2.062-13.438-13.956-22.743-27.913-22.225h-8.268c0.518-16.067 4.652-48.114 10.34-63.106 3.098-3.626 12.93-9.822 17.064-11.367 7.75-2.59 14.474-8.278 17.064-16.028 37.735-102.356 106.491-110.116 127.181-110.116 41.351 0 88.4 8.268 124.073 109.598 2.062 5.17 5.688 9.822 10.34 13.438 1.554 1.036 3.098 2.072 4.134 2.59 11.367 7.75 13.956 9.822 14.992 16.028 1.036 5.688 3.108 12.92 5.17 21.198 3.098 11.367 10.34 38.253 9.304 47.049-1.544 3.098-5.161 4.652-6.206 4.652-13.956 3.098-21.198 16.028-19.126 29.994 6.206 37.735 8.278 100.285-8.268 120.965-17.582 22.743-40.843 11.885-41.879 11.376-10.858-5.17-23.779-2.062-31.539 6.724-11.376 13.438-26.886 27.913-33.601 32.047-3.616 0-7.75 0-11.894 0.528-7.75 0.518-22.225 1.026-28.958 0z" />
<glyph unicode="&#xe947;" glyph-name="expand-down" d="M853.333 960c94.257 0 170.667-76.41 170.667-170.667v-682.667c0-94.257-76.41-170.667-170.667-170.667h-682.667c-94.257 0-170.667 76.41-170.667 170.667v682.667c0 94.257 76.41 170.667 170.667 170.667h682.667zM853.333 874.667h-682.667c-43.762 0-79.83-32.942-84.759-75.382l-0.574-9.952v-682.667c0-43.762 32.942-79.83 75.382-84.759l9.952-0.574h682.667c43.762 0 79.83 32.942 84.759 75.382l0.574 9.952v682.667c0 43.762-32.942 79.83-75.382 84.759l-9.952 0.574zM512 704c23.564 0 42.667-19.103 42.667-42.667v-170.581l170.667-0.085c23.564 0 42.667-19.103 42.667-42.667s-19.103-42.667-42.667-42.667l-170.667 0.085v-170.752c0-23.564-19.103-42.667-42.667-42.667s-42.667 19.103-42.667 42.667v170.752l-170.667-0.085c-23.564 0-42.667 19.103-42.667 42.667s19.103 42.667 42.667 42.667l170.667 0.085v170.581c0 23.564 19.103 42.667 42.667 42.667z" />
<glyph unicode="&#xe948;" glyph-name="expand-up" d="M853.333 960c94.257 0 170.667-76.41 170.667-170.667v-682.667c0-94.257-76.41-170.667-170.667-170.667h-682.667c-94.257 0-170.667 76.41-170.667 170.667v682.667c0 94.257 76.41 170.667 170.667 170.667h682.667zM853.333 874.667h-682.667c-43.762 0-79.83-32.942-84.759-75.382l-0.574-9.952v-682.667c0-43.762 32.942-79.83 75.382-84.759l9.952-0.574h682.667c43.762 0 79.83 32.942 84.759 75.382l0.574 9.952v682.667c0 43.762-32.942 79.83-75.382 84.759l-9.952 0.574zM298.667 490.667h426.667c23.564 0 42.667-19.103 42.667-42.667s-19.103-42.667-42.667-42.667h-426.667c-23.564 0-42.667 19.103-42.667 42.667s19.103 42.667 42.667 42.667z" />
<glyph unicode="&#xe949;" glyph-name="triangle-down" d="M896 678.4c31.643 0 49.706-36.125 30.72-61.44l-384-512c-15.36-20.48-46.080-20.48-61.44 0l-384 512c-18.986 25.315-0.923 61.44 30.72 61.44h768z" />
</font>
</defs>
</svg>
